<svg xmlns="http://www.w3.org/2000/svg" width="904" height="632" fill="none"  xmlns:v="https://vecta.io/nano"><path stroke="#08fdd8" stroke-width="3" d="M690 46.5h80"/><g fill="#fff"><path d="M682.816 9.216h14.08v2.208h-11.488v7.904h10.848v2.208h-10.848V32h-2.592V9.216zm20.911 6.688h2.592V32h-2.592V15.904zm2.912-6.816v2.944h-3.168V9.088h3.168zm22.057 6.848L721.752 32h-2.464l-6.848-16.064h2.72l5.44 13.248 5.504-13.248h2.592zm19.341 7.936h-11.808c.021 2.048.49 3.595 1.408 4.64.938 1.045 2.293 1.568 4.064 1.568 1.877 0 3.605-.629 5.184-1.888l.864 1.888c-.704.661-1.611 1.184-2.72 1.568-1.088.384-2.208.576-3.36.576-2.518 0-4.491-.736-5.92-2.208-1.43-1.493-2.144-3.531-2.144-6.112 0-1.643.32-3.093.96-4.352.64-1.28 1.536-2.272 2.688-2.976s2.464-1.056 3.936-1.056c2.133 0 3.808.704 5.024 2.112 1.216 1.387 1.824 3.307 1.824 5.76v.48zm-6.816-6.336c-1.344 0-2.443.405-3.296 1.216-.832.811-1.366 1.952-1.6 3.424h9.376c-.128-1.515-.576-2.667-1.344-3.456-.747-.789-1.792-1.184-3.136-1.184zm21.438-2.016c.533 0 1.024.064 1.472.192l-.064 2.368c-.491-.171-1.056-.256-1.696-.256-1.557 0-2.72.491-3.488 1.472-.747.96-1.12 2.133-1.12 3.52V32h-2.592V20.416c0-1.664-.085-3.168-.256-4.512h2.464l.256 2.976c.405-1.088 1.056-1.92 1.952-2.496s1.92-.864 3.072-.864zm14.794 0c.533 0 1.024.064 1.472.192l-.064 2.368c-.491-.171-1.056-.256-1.696-.256-1.558 0-2.72.491-3.488 1.472-.747.96-1.12 2.133-1.12 3.52V32h-2.592V20.416c0-1.664-.086-3.168-.256-4.512h2.464l.256 2.976c.405-1.088 1.056-1.92 1.952-2.496s1.92-.864 3.072-.864zM651.526 79.523h-7.068L642.957 83h-1.615l5.947-13.528h1.368L654.604 83h-1.596l-1.482-3.477zm-.551-1.292l-2.983-6.954-2.983 6.954h5.966zm12.129-5.016c.836 0 1.577.209 2.223.627s1.146 1.007 1.501 1.767c.355.747.532 1.615.532 2.603s-.177 1.856-.532 2.603c-.355.735-.855 1.305-1.501 1.71-.633.405-1.374.608-2.223.608-.747 0-1.4-.165-1.957-.494a3.19 3.19 0 0 1-1.273-1.406v5.871h-1.539V76.122a21.47 21.47 0 0 0-.152-2.679h1.463l.152 1.843c.266-.659.684-1.165 1.254-1.52.583-.367 1.267-.551 2.052-.551zm-.285 8.645c.937 0 1.659-.317 2.166-.95.519-.633.779-1.533.779-2.698s-.26-2.071-.779-2.717c-.519-.659-1.241-.988-2.166-.988-.95 0-1.678.317-2.185.95s-.76 1.539-.76 2.717.253 2.09.76 2.736c.507.633 1.235.95 2.185.95zm13.255-8.645c.316 0 .608.038.874.114l-.038 1.406c-.292-.101-.627-.152-1.007-.152-.925 0-1.615.291-2.071.874-.444.57-.665 1.267-.665 2.09V83h-1.539v-6.878a21.47 21.47 0 0 0-.152-2.679h1.463l.152 1.767c.24-.646.627-1.14 1.159-1.482s1.14-.513 1.824-.513zm4.337.228h1.539V83h-1.539v-9.557zm1.729-4.047v1.748h-1.881v-1.748h1.881zm4.699-.38h1.539V83h-1.539V69.016zm13.186 8.246h5.377v1.273h-5.377v-1.273zm15.418 7.771c.57.101 1.026.152 1.368.152.646 0 1.096-.184 1.349-.551.266-.355.399-.969.399-1.843V69.472h1.558V82.81c0 1.317-.241 2.267-.722 2.85-.469.583-1.248.874-2.337.874-.431 0-.969-.051-1.615-.152v-1.349zm17.729-11.59V83h-1.501v-1.653c-.304.583-.729 1.026-1.273 1.33s-1.159.456-1.843.456c-1.128 0-1.983-.317-2.565-.95s-.874-1.571-.874-2.812v-5.928h1.539v5.89c0 .861.177 1.495.532 1.9s.893.608 1.615.608c.848 0 1.532-.272 2.052-.817.519-.557.779-1.286.779-2.185v-5.396h1.539zm9.636-.228c2.292 0 3.439 1.26 3.439 3.781V83h-1.539v-5.928c0-.887-.178-1.533-.532-1.938-.355-.418-.912-.627-1.672-.627-.887 0-1.596.272-2.128.817s-.798 1.279-.798 2.204V83h-1.539v-6.878a21.47 21.47 0 0 0-.152-2.679h1.463l.152 1.71a3.11 3.11 0 0 1 1.311-1.425c.582-.342 1.247-.513 1.995-.513zm16.244 4.959h-7.011c.013 1.216.291 2.134.836 2.755.557.621 1.362.931 2.413.931 1.115 0 2.141-.374 3.078-1.121l.513 1.121c-.418.393-.956.703-1.615.931a5.95 5.95 0 0 1-1.995.342c-1.495 0-2.666-.437-3.515-1.311-.849-.887-1.273-2.096-1.273-3.629 0-.975.19-1.837.57-2.584.38-.76.912-1.349 1.596-1.767s1.463-.627 2.337-.627c1.267 0 2.261.418 2.983 1.254.722.823 1.083 1.963 1.083 3.42v.285zm-4.047-3.762c-.798 0-1.45.241-1.957.722-.494.481-.811 1.159-.95 2.033h5.567c-.076-.899-.342-1.583-.798-2.052-.443-.469-1.064-.703-1.862-.703zm23.934 7.277V83h-8.702v-1.178l4.731-5.244c.633-.709 1.096-1.349 1.387-1.919s.437-1.14.437-1.71c0-.747-.215-1.317-.646-1.71-.431-.405-1.045-.608-1.843-.608-1.292 0-2.571.519-3.838 1.558l-.589-1.197c.532-.507 1.203-.912 2.014-1.216s1.628-.456 2.451-.456c1.241 0 2.223.323 2.945.969.722.633 1.083 1.495 1.083 2.584a5.02 5.02 0 0 1-.532 2.242c-.342.709-.918 1.507-1.729 2.394l-3.857 4.18h6.688zm8.714 1.463c-1.546 0-2.724-.583-3.534-1.748-.798-1.178-1.197-2.901-1.197-5.168s.399-3.984 1.197-5.149c.81-1.178 1.988-1.767 3.534-1.767s2.717.589 3.515 1.767c.81 1.165 1.216 2.875 1.216 5.13 0 2.267-.406 3.99-1.216 5.168-.798 1.178-1.97 1.767-3.515 1.767zm0-1.311c1.076 0 1.868-.456 2.375-1.368.519-.912.779-2.331.779-4.256 0-1.913-.254-3.319-.76-4.218s-1.305-1.349-2.394-1.349c-1.077 0-1.875.45-2.394 1.349-.507.899-.76 2.305-.76 4.218s.253 3.331.76 4.256c.519.912 1.317 1.368 2.394 1.368zm17.567-.152V83h-7.543v-1.311h2.983V71.41l-2.774 1.767v-1.501l3.458-2.204h.893v12.217h2.983zm11.07-5.643c.886.241 1.57.659 2.052 1.254.494.583.741 1.286.741 2.109 0 1.153-.437 2.065-1.311 2.736-.874.659-2.052.988-3.534.988s-2.66-.329-3.534-.988c-.874-.671-1.311-1.583-1.311-2.736 0-.823.247-1.533.741-2.128.506-.595 1.197-1.007 2.071-1.235-.811-.241-1.432-.633-1.862-1.178-.431-.557-.646-1.21-.646-1.957 0-.722.19-1.349.57-1.881.38-.545.912-.963 1.596-1.254.696-.304 1.488-.456 2.375-.456s1.672.152 2.356.456c.696.291 1.235.709 1.615 1.254.38.532.57 1.159.57 1.881 0 .747-.222 1.4-.665 1.957-.431.545-1.039.937-1.824 1.178zm-5.035-3.021c0 .722.266 1.311.798 1.767.544.443 1.273.716 2.185.817.912-.101 1.634-.374 2.166-.817.544-.456.817-1.045.817-1.767 0-.747-.266-1.336-.798-1.767-.52-.431-1.248-.646-2.185-.646s-1.672.215-2.204.646c-.52.431-.779 1.02-.779 1.767zm2.983 8.816c1.064 0 1.881-.215 2.451-.646s.855-1.058.855-1.881c0-.747-.304-1.343-.912-1.786-.596-.456-1.394-.735-2.394-.836-1.001.101-1.805.38-2.413.836a2.11 2.11 0 0 0-.893 1.786c0 .823.285 1.45.855 1.881s1.387.646 2.451.646z"/><path d="M615.696 119.144c-1.188 0-2.22-.258-3.096-.774-.876-.528-1.548-1.284-2.016-2.268-.468-.996-.702-2.172-.702-3.528 0-1.344.234-2.508.702-3.492s1.14-1.734 2.016-2.25c.876-.528 1.908-.792 3.096-.792.888 0 1.698.144 2.43.432.744.276 1.386.69 1.926 1.242l-.468.882c-.612-.552-1.224-.948-1.836-1.188-.612-.252-1.296-.378-2.052-.378-1.476 0-2.622.486-3.438 1.458-.816.96-1.224 2.322-1.224 4.086 0 1.776.402 3.15 1.206 4.122.816.972 1.968 1.458 3.456 1.458.756 0 1.44-.12 2.052-.36.612-.252 1.224-.654 1.836-1.206l.468.882a5.37 5.37 0 0 1-1.926 1.26c-.732.276-1.542.414-2.43.414zm10.703-9.378c.3 0 .564.024.792.072l-.054.99c-.228-.048-.504-.072-.828-.072-.912 0-1.596.294-2.052.882-.444.576-.666 1.266-.666 2.07V119h-1.08v-6.516c0-.936-.048-1.77-.144-2.502h1.044l.144 1.674c.228-.612.594-1.08 1.098-1.404.516-.324 1.098-.486 1.746-.486zm2.787 4.59v.054c0 1.212.276 2.142.828 2.79.564.636 1.38.954 2.448.954 1.08 0 2.07-.372 2.97-1.116l.432.864c-.396.372-.9.672-1.512.9a5.64 5.64 0 0 1-1.89.324c-1.368 0-2.448-.414-3.24-1.242s-1.188-1.968-1.188-3.42c0-.924.174-1.74.522-2.448.36-.72.858-1.272 1.494-1.656.636-.396 1.368-.594 2.196-.594 1.188 0 2.112.384 2.772 1.152.672.768 1.008 1.836 1.008 3.204v.234h-6.84zm3.06-3.69c-.828 0-1.5.252-2.016.756-.516.492-.84 1.188-.972 2.088h5.724c-.072-.924-.342-1.626-.81-2.106-.468-.492-1.11-.738-1.926-.738zm13.788-.684V119h-1.098v-1.728c-.264.6-.666 1.062-1.206 1.386-.528.312-1.164.468-1.908.468-.804 0-1.512-.186-2.124-.558-.6-.384-1.068-.924-1.404-1.62-.324-.708-.486-1.53-.486-2.466s.168-1.758.504-2.466c.336-.72.804-1.272 1.404-1.656.612-.396 1.314-.594 2.106-.594.732 0 1.362.156 1.89.468a2.96 2.96 0 0 1 1.224 1.368v-1.62h1.098zm-4.05 8.172c.936 0 1.662-.324 2.178-.972s.774-1.56.774-2.736c0-1.188-.258-2.106-.774-2.754s-1.248-.972-2.196-.972-1.686.336-2.214 1.008c-.528.66-.792 1.578-.792 2.754 0 1.164.264 2.07.792 2.718.528.636 1.272.954 2.232.954zm8.564-7.29v5.364c0 .72.138 1.218.414 1.494s.684.414 1.224.414a2.95 2.95 0 0 0 .972-.162v.99c-.384.096-.774.144-1.17.144-.792 0-1.416-.222-1.872-.666-.444-.444-.666-1.11-.666-1.998v-5.58h-1.782v-.882h1.782v-2.394l1.098-.414v2.808h2.664v.882h-2.664zm5.111 3.492v.054c0 1.212.276 2.142.828 2.79.564.636 1.38.954 2.448.954 1.08 0 2.07-.372 2.97-1.116l.432.864c-.396.372-.9.672-1.512.9a5.64 5.64 0 0 1-1.89.324c-1.368 0-2.448-.414-3.24-1.242s-1.188-1.968-1.188-3.42c0-.924.174-1.74.522-2.448.36-.72.858-1.272 1.494-1.656.636-.396 1.368-.594 2.196-.594 1.188 0 2.112.384 2.772 1.152.672.768 1.008 1.836 1.008 3.204v.234h-6.84zm3.06-3.69c-.828 0-1.5.252-2.016.756-.516.492-.84 1.188-.972 2.088h5.724c-.072-.924-.342-1.626-.81-2.106-.468-.492-1.11-.738-1.926-.738zm13.787-4.914V119h-1.098v-1.728c-.264.6-.666 1.062-1.206 1.386-.528.312-1.164.468-1.908.468-.792 0-1.494-.192-2.106-.576-.6-.396-1.068-.948-1.404-1.656-.336-.72-.504-1.548-.504-2.484s.162-1.752.486-2.448c.336-.708.804-1.248 1.404-1.62.612-.384 1.32-.576 2.124-.576.732 0 1.362.156 1.89.468a2.96 2.96 0 0 1 1.224 1.368v-5.85h1.098zm-4.068 12.402c.948 0 1.68-.324 2.196-.972s.774-1.56.774-2.736-.258-2.088-.774-2.736c-.516-.66-1.242-.99-2.178-.99-.96 0-1.704.324-2.232.972s-.792 1.554-.792 2.718c0 1.176.264 2.094.792 2.754s1.266.99 2.214.99zm12.217-3.798v.054c0 1.212.276 2.142.828 2.79.564.636 1.38.954 2.448.954 1.08 0 2.07-.372 2.97-1.116l.432.864c-.396.372-.9.672-1.512.9a5.64 5.64 0 0 1-1.89.324c-1.368 0-2.448-.414-3.24-1.242s-1.188-1.968-1.188-3.42c0-.924.174-1.74.522-2.448.36-.72.858-1.272 1.494-1.656.636-.396 1.368-.594 2.196-.594 1.188 0 2.112.384 2.772 1.152.672.768 1.008 1.836 1.008 3.204v.234h-6.84zm3.06-3.69c-.828 0-1.5.252-2.016.756-.516.492-.84 1.188-.972 2.088h5.724c-.072-.924-.342-1.626-.81-2.106-.468-.492-1.11-.738-1.926-.738zm6.169 3.024h4.932v.954h-4.932v-.954zm11.691 5.436c-.852 0-1.596-.192-2.232-.576s-1.128-.924-1.476-1.62c-.348-.708-.522-1.524-.522-2.448 0-.936.174-1.758.522-2.466.348-.72.846-1.272 1.494-1.656.648-.396 1.398-.594 2.25-.594a4.75 4.75 0 0 1 1.746.324c.564.204 1.026.492 1.386.864l-.432.864c-.468-.384-.918-.66-1.35-.828a3.3 3.3 0 0 0-1.314-.27c-.972 0-1.74.336-2.304 1.008-.564.66-.846 1.578-.846 2.754 0 1.152.276 2.052.828 2.7.564.648 1.338.972 2.322.972.456 0 .894-.084 1.314-.252.432-.18.882-.456 1.35-.828l.432.846c-.384.372-.864.666-1.44.882-.564.216-1.14.324-1.728.324zm8.752 0c-.828 0-1.56-.192-2.196-.576-.624-.384-1.11-.93-1.458-1.638-.336-.708-.504-1.53-.504-2.466s.168-1.758.504-2.466c.348-.708.834-1.254 1.458-1.638.636-.384 1.368-.576 2.196-.576.816 0 1.536.192 2.16.576s1.104.93 1.44 1.638c.348.708.522 1.53.522 2.466s-.174 1.758-.522 2.466c-.336.708-.816 1.254-1.44 1.638s-1.344.576-2.16.576zm-.018-.972c.96 0 1.698-.318 2.214-.954.528-.648.792-1.566.792-2.754 0-1.176-.264-2.088-.792-2.736-.528-.66-1.26-.99-2.196-.99-.948 0-1.686.33-2.214.99-.528.648-.792 1.56-.792 2.736 0 1.2.258 2.118.774 2.754s1.254.954 2.214.954zm16.263-8.388c1.992 0 2.988 1.164 2.988 3.492V119h-1.098v-5.67c0-.912-.162-1.572-.486-1.98-.324-.42-.84-.63-1.548-.63-.828 0-1.482.276-1.962.828-.468.552-.702 1.302-.702 2.25V119h-1.098v-5.67c0-.912-.168-1.572-.504-1.98-.324-.42-.84-.63-1.548-.63-.816 0-1.47.276-1.962.828-.48.552-.72 1.302-.72 2.25V119h-1.08v-6.516c0-.936-.048-1.77-.144-2.502h1.044l.144 1.62c.252-.6.624-1.056 1.116-1.368.504-.312 1.086-.468 1.746-.468 1.452 0 2.382.588 2.79 1.764.252-.552.642-.984 1.17-1.296.54-.312 1.158-.468 1.854-.468zm15.645 0c1.992 0 2.988 1.164 2.988 3.492V119h-1.098v-5.67c0-.912-.162-1.572-.486-1.98-.324-.42-.84-.63-1.548-.63-.828 0-1.482.276-1.962.828-.468.552-.702 1.302-.702 2.25V119h-1.098v-5.67c0-.912-.168-1.572-.504-1.98-.324-.42-.84-.63-1.548-.63-.816 0-1.47.276-1.962.828-.48.552-.72 1.302-.72 2.25V119h-1.08v-6.516c0-.936-.048-1.77-.144-2.502h1.044l.144 1.62c.252-.6.624-1.056 1.116-1.368.504-.312 1.086-.468 1.746-.468 1.452 0 2.382.588 2.79 1.764.252-.552.642-.984 1.17-1.296.54-.312 1.158-.468 1.854-.468zm6.5 4.59v.054c0 1.212.276 2.142.828 2.79.564.636 1.38.954 2.448.954 1.08 0 2.07-.372 2.97-1.116l.432.864c-.396.372-.9.672-1.512.9a5.64 5.64 0 0 1-1.89.324c-1.368 0-2.448-.414-3.24-1.242s-1.188-1.968-1.188-3.42c0-.924.174-1.74.522-2.448.36-.72.858-1.272 1.494-1.656.636-.396 1.368-.594 2.196-.594 1.188 0 2.112.384 2.772 1.152.672.768 1.008 1.836 1.008 3.204v.234h-6.84zm3.06-3.69c-.828 0-1.5.252-2.016.756-.516.492-.84 1.188-.972 2.088h5.724c-.072-.924-.342-1.626-.81-2.106-.468-.492-1.11-.738-1.926-.738zm10.026-.9c.3 0 .564.024.792.072l-.054.99c-.228-.048-.504-.072-.828-.072-.912 0-1.596.294-2.052.882-.444.576-.666 1.266-.666 2.07V119h-1.08v-6.516c0-.936-.048-1.77-.144-2.502h1.044l.144 1.674c.228-.612.594-1.08 1.098-1.404.516-.324 1.098-.486 1.746-.486zm5.866 9.36c-.852 0-1.596-.192-2.232-.576s-1.128-.924-1.476-1.62c-.348-.708-.522-1.524-.522-2.448 0-.936.174-1.758.522-2.466.348-.72.846-1.272 1.494-1.656.648-.396 1.398-.594 2.25-.594a4.75 4.75 0 0 1 1.746.324c.564.204 1.026.492 1.386.864l-.432.864c-.468-.384-.918-.66-1.35-.828a3.3 3.3 0 0 0-1.314-.27c-.972 0-1.74.336-2.304 1.008-.564.66-.846 1.578-.846 2.754 0 1.152.276 2.052.828 2.7.564.648 1.338.972 2.322.972.456 0 .894-.084 1.314-.252.432-.18.882-.456 1.35-.828l.432.846c-.384.372-.864.666-1.44.882-.564.216-1.14.324-1.728.324zm5.746-4.77v.054c0 1.212.276 2.142.828 2.79.564.636 1.38.954 2.448.954 1.08 0 2.07-.372 2.97-1.116l.432.864c-.396.372-.9.672-1.512.9a5.64 5.64 0 0 1-1.89.324c-1.368 0-2.448-.414-3.24-1.242s-1.188-1.968-1.188-3.42c0-.924.174-1.74.522-2.448.36-.72.858-1.272 1.494-1.656.636-.396 1.368-.594 2.196-.594 1.188 0 2.112.384 2.772 1.152.672.768 1.008 1.836 1.008 3.204v.234h-6.84zm3.06-3.69c-.828 0-1.5.252-2.016.756-.516.492-.84 1.188-.972 2.088h5.724c-.072-.924-.342-1.626-.81-2.106-.468-.492-1.11-.738-1.926-.738zm24.153-.684L797.352 119h-1.134l-2.736-7.614-2.754 7.614h-1.152l-3.258-9.018h1.17l2.664 7.704 2.808-7.704h1.098l2.718 7.704 2.736-7.704h1.116zm2.599 4.374v.054c0 1.212.276 2.142.828 2.79.564.636 1.38.954 2.448.954 1.08 0 2.07-.372 2.97-1.116l.432.864c-.396.372-.9.672-1.512.9a5.64 5.64 0 0 1-1.89.324c-1.368 0-2.448-.414-3.24-1.242s-1.188-1.968-1.188-3.42c0-.924.174-1.74.522-2.448.36-.72.858-1.272 1.494-1.656.636-.396 1.368-.594 2.196-.594 1.188 0 2.112.384 2.772 1.152.672.768 1.008 1.836 1.008 3.204v.234h-6.84zm3.06-3.69c-.828 0-1.5.252-2.016.756-.516.492-.84 1.188-.972 2.088h5.724c-.072-.924-.342-1.626-.81-2.106-.468-.492-1.11-.738-1.926-.738zm10.35-.9c.792 0 1.494.192 2.106.576s1.08.924 1.404 1.62c.336.696.504 1.512.504 2.448s-.168 1.764-.504 2.484c-.336.708-.81 1.26-1.422 1.656-.6.384-1.296.576-2.088.576-.744 0-1.386-.162-1.926-.486a2.98 2.98 0 0 1-1.188-1.404V119h-1.098v-13.248h1.08v5.922c.264-.624.666-1.098 1.206-1.422s1.182-.486 1.926-.486zm-.126 8.388c.936 0 1.668-.33 2.196-.99s.792-1.578.792-2.754c0-1.164-.264-2.07-.792-2.718s-1.266-.972-2.214-.972-1.68.324-2.196.972-.774 1.566-.774 2.754.258 2.106.774 2.754c.516.636 1.254.954 2.214.954zm9.482.972c-1.464 0-2.622-.402-3.474-1.206l.396-.846c.48.396.96.678 1.44.846.492.168 1.056.252 1.692.252.744 0 1.308-.126 1.692-.378a1.28 1.28 0 0 0 .594-1.134c0-.408-.132-.726-.396-.954-.252-.24-.672-.432-1.26-.576l-1.53-.342c-.72-.168-1.29-.468-1.71-.9-.408-.432-.612-.936-.612-1.512 0-.792.3-1.422.9-1.89.612-.48 1.422-.72 2.43-.72.636 0 1.224.102 1.764.306.552.204 1.008.498 1.368.882l-.414.846c-.828-.72-1.734-1.08-2.718-1.08-.696 0-1.236.138-1.62.414s-.576.66-.576 1.152c0 .408.12.738.36.99.252.252.636.438 1.152.558l1.548.378c1.62.36 2.43 1.158 2.43 2.394 0 .756-.312 1.368-.936 1.836-.624.456-1.464.684-2.52.684zm5.961-9.144h1.08V119h-1.08v-9.018zm1.296-3.726v1.404h-1.458v-1.404h1.458zm4.33 4.608v5.364c0 .72.138 1.218.414 1.494s.684.414 1.224.414a2.95 2.95 0 0 0 .972-.162v.99c-.384.096-.774.144-1.17.144-.792 0-1.416-.222-1.872-.666-.444-.444-.666-1.11-.666-1.998v-5.58H834.7v-.882h1.782v-2.394l1.098-.414v2.808h2.664v.882h-2.664zm5.11 3.492v.054c0 1.212.276 2.142.828 2.79.564.636 1.38.954 2.448.954 1.08 0 2.07-.372 2.97-1.116l.432.864c-.396.372-.9.672-1.512.9a5.64 5.64 0 0 1-1.89.324c-1.368 0-2.448-.414-3.24-1.242s-1.188-1.968-1.188-3.42c0-.924.174-1.74.522-2.448.36-.72.858-1.272 1.494-1.656.636-.396 1.368-.594 2.196-.594 1.188 0 2.112.384 2.772 1.152.672.768 1.008 1.836 1.008 3.204v.234h-6.84zm3.06-3.69c-.828 0-1.5.252-2.016.756-.516.492-.84 1.188-.972 2.088h5.724c-.072-.924-.342-1.626-.81-2.106-.468-.492-1.11-.738-1.926-.738zm9.072 8.46c-1.464 0-2.622-.402-3.474-1.206l.396-.846c.48.396.96.678 1.44.846.492.168 1.056.252 1.692.252.744 0 1.308-.126 1.692-.378a1.28 1.28 0 0 0 .594-1.134c0-.408-.132-.726-.396-.954-.252-.24-.672-.432-1.26-.576l-1.53-.342c-.72-.168-1.29-.468-1.71-.9-.408-.432-.612-.936-.612-1.512 0-.792.3-1.422.9-1.89.612-.48 1.422-.72 2.43-.72.636 0 1.224.102 1.764.306.552.204 1.008.498 1.368.882l-.414.846c-.828-.72-1.734-1.08-2.718-1.08-.696 0-1.236.138-1.62.414s-.576.66-.576 1.152c0 .408.12.738.36.99.252.252.636.438 1.152.558l1.548.378c1.62.36 2.43 1.158 2.43 2.394 0 .756-.312 1.368-.936 1.836-.624.456-1.464.684-2.52.684zm-169.097 19.856V148h-1.062v-1.638c-.288.576-.696 1.014-1.224 1.314s-1.134.45-1.818.45c-1.056 0-1.854-.294-2.394-.882s-.81-1.458-.81-2.61v-5.652h1.08v5.58c0 .888.18 1.542.54 1.962s.918.63 1.674.63c.888 0 1.596-.276 2.124-.828.528-.564.792-1.308.792-2.232v-5.112h1.098zm5.928 9.144c-1.464 0-2.622-.402-3.474-1.206l.396-.846c.48.396.96.678 1.44.846.492.168 1.056.252 1.692.252.744 0 1.308-.126 1.692-.378a1.28 1.28 0 0 0 .594-1.134c0-.408-.132-.726-.396-.954-.252-.24-.672-.432-1.26-.576l-1.53-.342c-.72-.168-1.29-.468-1.71-.9-.408-.432-.612-.936-.612-1.512 0-.792.3-1.422.9-1.89.612-.48 1.422-.72 2.43-.72.636 0 1.224.102 1.764.306.552.204 1.008.498 1.368.882l-.414.846c-.828-.72-1.734-1.08-2.718-1.08-.696 0-1.236.138-1.62.414s-.576.66-.576 1.152c0 .408.12.738.36.99.252.252.636.438 1.152.558l1.548.378c1.62.36 2.43 1.158 2.43 2.394 0 .756-.312 1.368-.936 1.836-.624.456-1.464.684-2.52.684zm5.96-9.144h1.08V148h-1.08v-9.018zm1.296-3.726v1.404h-1.458v-1.404h1.458zm6.994 3.51c2.172 0 3.258 1.164 3.258 3.492V148h-1.098v-5.67c0-.9-.186-1.56-.558-1.98-.36-.42-.93-.63-1.71-.63-.9 0-1.626.276-2.178.828s-.828 1.296-.828 2.232V148h-1.08v-6.516c0-.936-.048-1.77-.144-2.502h1.044l.144 1.656a2.92 2.92 0 0 1 1.242-1.386c.552-.324 1.188-.486 1.908-.486zm13.934.216v9.054c0 1.308-.324 2.298-.972 2.97s-1.602 1.008-2.862 1.008c-1.344 0-2.514-.324-3.51-.972l.216-.954c.588.348 1.128.594 1.62.738s1.056.216 1.692.216c.9 0 1.578-.246 2.034-.738.468-.492.702-1.212.702-2.16v-2.322c-.276.612-.684 1.086-1.224 1.422-.54.324-1.188.486-1.944.486-.792 0-1.494-.186-2.106-.558-.612-.384-1.092-.912-1.44-1.584-.336-.684-.504-1.464-.504-2.34 0-.888.168-1.668.504-2.34.348-.684.828-1.212 1.44-1.584s1.314-.558 2.106-.558c.756 0 1.398.156 1.926.468a2.96 2.96 0 0 1 1.224 1.368v-1.62h1.098zm-4.104 7.758c.936 0 1.668-.312 2.196-.936.54-.624.81-1.476.81-2.556 0-1.092-.27-1.95-.81-2.574-.528-.636-1.26-.954-2.196-.954-.948 0-1.692.318-2.232.954-.54.624-.81 1.482-.81 2.574s.27 1.95.81 2.574c.54.612 1.284.918 2.232.918zm15.815 1.404c-1.008 0-1.902-.132-2.682-.396-.768-.276-1.452-.702-2.052-1.278l.468-.882c.636.564 1.278.966 1.926 1.206.66.24 1.44.36 2.34.36 1.08 0 1.92-.222 2.52-.666s.9-1.068.9-1.872c0-.468-.15-.846-.45-1.134-.288-.3-.66-.534-1.116-.702-.444-.168-1.038-.336-1.782-.504-.984-.216-1.788-.438-2.412-.666-.612-.24-1.128-.594-1.548-1.062s-.63-1.092-.63-1.872c0-.72.186-1.356.558-1.908s.9-.978 1.584-1.278c.696-.3 1.5-.45 2.412-.45.876 0 1.686.144 2.43.432.744.276 1.386.69 1.926 1.242l-.468.882c-.6-.54-1.212-.936-1.836-1.188a5.43 5.43 0 0 0-2.052-.378c-1.08 0-1.926.234-2.538.702-.6.468-.9 1.11-.9 1.926 0 .708.264 1.236.792 1.584s1.302.642 2.322.882l.522.126 2.286.666c.564.216 1.044.54 1.44.972s.594 1.008.594 1.728c0 .696-.186 1.314-.558 1.854-.372.528-.906.942-1.602 1.242-.684.288-1.482.432-2.394.432zm11.093-9.378c2.172 0 3.258 1.164 3.258 3.492V148h-1.098v-5.67c0-.9-.186-1.56-.558-1.98-.36-.42-.93-.63-1.71-.63-.9 0-1.626.276-2.178.828s-.828 1.296-.828 2.232V148h-1.08v-13.248h1.08v5.796c.288-.588.702-1.032 1.242-1.332s1.164-.45 1.872-.45zm9.794 9.36c-.828 0-1.56-.192-2.196-.576-.624-.384-1.11-.93-1.458-1.638-.336-.708-.504-1.53-.504-2.466s.168-1.758.504-2.466c.348-.708.834-1.254 1.458-1.638.636-.384 1.368-.576 2.196-.576.816 0 1.536.192 2.16.576s1.104.93 1.44 1.638c.348.708.522 1.53.522 2.466s-.174 1.758-.522 2.466c-.336.708-.816 1.254-1.44 1.638s-1.344.576-2.16.576zm-.018-.972c.96 0 1.698-.318 2.214-.954.528-.648.792-1.566.792-2.754 0-1.176-.264-2.088-.792-2.736-.528-.66-1.26-.99-2.196-.99-.948 0-1.686.33-2.214.99-.528.648-.792 1.56-.792 2.736 0 1.2.258 2.118.774 2.754s1.254.954 2.214.954zm10.756-8.388c.792 0 1.488.198 2.088.594.612.384 1.086.936 1.422 1.656.336.708.504 1.53.504 2.466s-.168 1.752-.504 2.448c-.324.696-.792 1.236-1.404 1.62s-1.314.576-2.106.576c-.756 0-1.404-.162-1.944-.486-.528-.336-.924-.816-1.188-1.44v5.688h-1.08v-10.404c0-.936-.048-1.77-.144-2.502h1.044l.144 1.764c.264-.636.666-1.122 1.206-1.458.552-.348 1.206-.522 1.962-.522zm-.144 8.388c.948 0 1.686-.318 2.214-.954.528-.648.792-1.554.792-2.718 0-1.176-.264-2.094-.792-2.754-.528-.672-1.26-1.008-2.196-1.008-.96 0-1.698.324-2.214.972s-.774 1.566-.774 2.754c0 1.176.258 2.088.774 2.736s1.248.972 2.196.972zm6.567-8.172h1.08V148h-1.08v-9.018zm1.296-3.726v1.404h-1.458v-1.404h1.458zm5.913.414c-.516 0-.912.138-1.188.414s-.414.768-.414 1.476v1.422h2.322v.882h-2.322V148h-1.098v-8.136h-1.764v-.882h1.764v-1.62c0-.9.222-1.572.666-2.016s1.056-.666 1.836-.666c.36 0 .732.048 1.116.144v.99c-.324-.096-.63-.144-.918-.144zm10.566 3.312l-4.248 9.954c-.42.984-.948 1.704-1.584 2.16-.624.468-1.41.798-2.358.99l-.216-.864c.864-.204 1.512-.468 1.944-.792.444-.324.816-.834 1.116-1.53l.378-.882-3.852-9.036h1.17l3.258 7.92 3.276-7.92h1.116zm2.434 7.452V148h-1.53v-1.566h1.53z"/></g><path stroke="#08fdd8" stroke-width="3" d="M81 289.5h127"/><g fill="#fff"><path d="M62.816 250.216h2.624V273h-2.624v-22.784zm19.162 6.304c3.861 0 5.792 2.123 5.792 6.368V273h-2.592v-9.984c0-1.493-.299-2.581-.896-3.264-.597-.704-1.536-1.056-2.816-1.056-1.493 0-2.688.459-3.584 1.376s-1.344 2.155-1.344 3.712V273h-2.592v-11.584c0-1.664-.085-3.168-.256-4.512h2.464l.256 2.88c.491-1.045 1.227-1.845 2.208-2.4.981-.576 2.101-.864 3.36-.864zm19.327 16.704c-2.71 0-4.854-.693-6.432-2.08l.864-1.92c.875.683 1.76 1.173 2.656 1.472s1.898.448 3.008.448c1.216 0 2.133-.203 2.752-.608.64-.427.96-1.035.96-1.824 0-.64-.214-1.152-.64-1.536s-1.131-.683-2.112-.896l-2.72-.64c-1.344-.299-2.389-.832-3.136-1.6-.725-.768-1.088-1.685-1.088-2.752 0-1.408.565-2.549 1.696-3.424 1.131-.896 2.624-1.344 4.48-1.344 1.13 0 2.197.181 3.2.544s1.845.885 2.528 1.568l-.864 1.888c-1.515-1.259-3.136-1.888-4.864-1.888-1.152 0-2.048.224-2.688.672-.619.427-.928 1.035-.928 1.824 0 .661.192 1.184.576 1.568.405.384 1.045.683 1.92.896l2.72.672c1.493.341 2.602.875 3.328 1.6.725.704 1.088 1.632 1.088 2.784 0 1.387-.566 2.496-1.696 3.328s-2.667 1.248-4.608 1.248zm16.934-14.272v8.8c0 1.195.246 2.037.736 2.528.491.469 1.184.704 2.08.704a5.24 5.24 0 0 0 1.728-.288v2.208c-.661.213-1.408.32-2.24.32-1.536 0-2.741-.427-3.616-1.28-.853-.875-1.28-2.155-1.28-3.84v-9.152h-3.136v-2.048h3.136v-4.128l2.592-.928v5.056h4.608v2.048h-4.608zm25.108-2.048V273h-2.56v-2.912c-.469 1.003-1.184 1.781-2.144 2.336-.939.533-2.037.8-3.296.8-1.429 0-2.688-.341-3.776-1.024-1.067-.683-1.899-1.643-2.496-2.88-.576-1.259-.864-2.72-.864-4.384s.299-3.125.896-4.384c.597-1.28 1.429-2.272 2.496-2.976 1.088-.704 2.336-1.056 3.744-1.056 1.259 0 2.357.277 3.296.832s1.653 1.333 2.144 2.336v-2.784h2.56zm-7.488 14.176c1.579 0 2.795-.533 3.648-1.6.853-1.088 1.28-2.624 1.28-4.608s-.427-3.509-1.28-4.576-2.069-1.6-3.648-1.6-2.816.555-3.712 1.664c-.875 1.088-1.312 2.613-1.312 4.576s.437 3.477 1.312 4.544 2.112 1.6 3.712 1.6zm23.732-14.56c1.408 0 2.656.352 3.744 1.056s1.93 1.696 2.528 2.976c.597 1.259.896 2.72.896 4.384s-.299 3.125-.896 4.384c-.598 1.237-1.44 2.197-2.528 2.88-1.067.683-2.315 1.024-3.744 1.024-1.259 0-2.358-.277-3.296-.832s-1.654-1.344-2.144-2.368v9.888h-2.592v-18.496c0-1.664-.086-3.168-.256-4.512h2.463l.257 3.104c.448-1.109 1.152-1.963 2.112-2.56.981-.619 2.133-.928 3.456-.928zm-.48 14.56c1.578 0 2.794-.533 3.648-1.6.874-1.067 1.312-2.581 1.312-4.544s-.438-3.488-1.312-4.576c-.875-1.109-2.091-1.664-3.648-1.664-1.6 0-2.827.533-3.68 1.6s-1.28 2.592-1.28 4.576.426 3.52 1.28 4.608c.853 1.067 2.08 1.6 3.68 1.6zm29.011-14.176V273h-2.56v-2.912c-.469 1.003-1.184 1.781-2.144 2.336-.939.533-2.037.8-3.296.8-1.429 0-2.688-.341-3.776-1.024-1.067-.683-1.899-1.643-2.496-2.88-.576-1.259-.864-2.72-.864-4.384s.299-3.125.896-4.384c.597-1.28 1.429-2.272 2.496-2.976 1.088-.704 2.336-1.056 3.744-1.056 1.259 0 2.357.277 3.296.832s1.653 1.333 2.144 2.336v-2.784h2.56zm-7.488 14.176c1.579 0 2.795-.533 3.648-1.6.853-1.088 1.28-2.624 1.28-4.608s-.427-3.509-1.28-4.576-2.069-1.6-3.648-1.6-2.816.555-3.712 1.664c-.875 1.088-1.312 2.613-1.312 4.576s.437 3.477 1.312 4.544 2.112 1.6 3.712 1.6zm30.035-14.176v15.968c0 2.389-.618 4.192-1.856 5.408-1.216 1.237-3.018 1.856-5.408 1.856-2.453 0-4.565-.555-6.336-1.664l.448-2.112c1.024.576 1.984.992 2.88 1.248.918.256 1.92.384 3.008.384 1.558 0 2.731-.416 3.52-1.248.79-.811 1.184-2.027 1.184-3.648v-3.808a5.51 5.51 0 0 1-2.176 2.4c-.938.555-2.058.832-3.36.832-1.408 0-2.666-.331-3.776-.992-1.088-.661-1.93-1.6-2.528-2.816s-.896-2.613-.896-4.192.299-2.976.896-4.192 1.44-2.155 2.528-2.816c1.11-.661 2.368-.992 3.776-.992 1.28 0 2.39.277 3.328.832.96.555 1.686 1.333 2.176 2.336v-2.784h2.592zm-7.584 13.44c1.558 0 2.774-.512 3.648-1.536.896-1.045 1.344-2.475 1.344-4.288s-.448-3.232-1.344-4.256c-.874-1.045-2.09-1.568-3.648-1.568-1.578 0-2.826.523-3.744 1.568-.896 1.024-1.344 2.443-1.344 4.256s.448 3.243 1.344 4.288c.918 1.024 2.166 1.536 3.744 1.536zm29.233-5.472H220.51c.021 2.048.491 3.595 1.408 4.64.939 1.045 2.293 1.568 4.064 1.568 1.877 0 3.605-.629 5.184-1.888l.864 1.888c-.704.661-1.611 1.184-2.72 1.568-1.088.384-2.208.576-3.36.576-2.517 0-4.491-.736-5.92-2.208-1.429-1.493-2.144-3.531-2.144-6.112 0-1.643.32-3.093.96-4.352.64-1.28 1.536-2.272 2.688-2.976s2.464-1.056 3.936-1.056c2.133 0 3.808.704 5.024 2.112 1.216 1.387 1.824 3.307 1.824 5.76v.48zm-6.816-6.336c-1.344 0-2.443.405-3.296 1.216-.832.811-1.365 1.952-1.6 3.424h9.376c-.128-1.515-.576-2.667-1.344-3.456-.747-.789-1.792-1.184-3.136-1.184zM53.905 325.033c.57.101 1.026.152 1.368.152.646 0 1.096-.184 1.349-.551.266-.355.399-.969.399-1.843v-13.319h1.558v13.338c0 1.317-.241 2.267-.722 2.85-.469.583-1.248.874-2.337.874-.431 0-.969-.051-1.615-.152v-1.349zm17.729-11.59V323h-1.501v-1.653c-.304.583-.728 1.026-1.273 1.33s-1.159.456-1.843.456c-1.127 0-1.982-.317-2.565-.95s-.874-1.571-.874-2.812v-5.928h1.539v5.89c0 .861.177 1.495.532 1.9s.893.608 1.615.608c.849 0 1.533-.272 2.052-.817.519-.557.779-1.286.779-2.185v-5.396h1.539zm4.867-4.427h1.539V323h-1.539v-13.984zm14.825 4.427l-4.465 10.431c-.469 1.089-1.058 1.887-1.767 2.394s-1.583.855-2.622 1.045l-.323-1.197c.899-.203 1.577-.475 2.033-.817.469-.329.855-.842 1.159-1.539l.38-.855-4.047-9.462h1.615l3.23 7.885 3.268-7.885h1.539zm10.355 3.819h5.377v1.273h-5.377v-1.273zm22.847 5.89c-1.254 0-2.344-.279-3.268-.836s-1.641-1.355-2.147-2.394c-.494-1.051-.741-2.28-.741-3.686 0-1.419.247-2.647.741-3.686s1.203-1.837 2.128-2.394 2.02-.836 3.287-.836 2.362.279 3.287.836 1.634 1.355 2.128 2.394.741 2.261.741 3.667c0 1.419-.254 2.647-.76 3.686-.494 1.039-1.204 1.843-2.128 2.413-.925.557-2.014.836-3.268.836zm0-1.33c1.431 0 2.546-.488 3.344-1.463s1.197-2.356 1.197-4.142-.399-3.16-1.197-4.123c-.786-.963-1.9-1.444-3.344-1.444s-2.565.488-3.363 1.463c-.798.963-1.197 2.331-1.197 4.104 0 1.786.399 3.167 1.197 4.142s1.919 1.463 3.363 1.463zm14.733 1.311c-.924 0-1.735-.203-2.432-.608a4.16 4.16 0 0 1-1.596-1.71c-.367-.747-.551-1.615-.551-2.603s.19-1.856.57-2.603c.38-.76.919-1.349 1.615-1.767.71-.418 1.533-.627 2.47-.627a5.16 5.16 0 0 1 1.862.342c.608.215 1.109.519 1.501.912l-.513 1.14c-.481-.38-.95-.659-1.406-.836-.443-.177-.899-.266-1.368-.266-.975 0-1.741.329-2.299.988-.557.646-.836 1.552-.836 2.717 0 1.153.273 2.052.817 2.698.558.633 1.33.95 2.318.95.469 0 .925-.089 1.368-.266.456-.177.925-.456 1.406-.836l.513 1.14c-.405.38-.918.684-1.539.912-.608.215-1.241.323-1.9.323zm9.369-8.474v5.225c0 .709.146 1.21.437 1.501.291.279.703.418 1.235.418a3.11 3.11 0 0 0 1.026-.171v1.311c-.393.127-.836.19-1.33.19-.912 0-1.628-.253-2.147-.76-.507-.519-.76-1.279-.76-2.28v-5.434h-1.862v-1.216h1.862v-2.451l1.539-.551v3.002h2.736v1.216h-2.736zm22.142 7.03V323h-8.702v-1.178l4.731-5.244c.633-.709 1.095-1.349 1.387-1.919s.437-1.14.437-1.71c0-.747-.216-1.317-.646-1.71-.431-.405-1.045-.608-1.843-.608-1.292 0-2.572.519-3.838 1.558l-.589-1.197c.532-.507 1.203-.912 2.014-1.216s1.627-.456 2.451-.456c1.241 0 2.223.323 2.945.969.722.633 1.083 1.495 1.083 2.584 0 .773-.178 1.52-.532 2.242-.342.709-.919 1.507-1.729 2.394l-3.857 4.18h6.688zm8.713 1.463c-1.545 0-2.723-.583-3.534-1.748-.798-1.178-1.197-2.901-1.197-5.168s.399-3.984 1.197-5.149c.811-1.178 1.989-1.767 3.534-1.767s2.717.589 3.515 1.767c.811 1.165 1.216 2.875 1.216 5.13 0 2.267-.405 3.99-1.216 5.168-.798 1.178-1.969 1.767-3.515 1.767zm0-1.311c1.077 0 1.869-.456 2.375-1.368.52-.912.779-2.331.779-4.256 0-1.913-.253-3.319-.76-4.218s-1.304-1.349-2.394-1.349c-1.076 0-1.874.45-2.394 1.349-.506.899-.76 2.305-.76 4.218s.254 3.331.76 4.256c.52.912 1.318 1.368 2.394 1.368zm17.568-.152V323h-7.543v-1.311h2.983V311.41l-2.774 1.767v-1.501l3.458-2.204h.893v12.217h2.983zm11.07-5.643c.886.241 1.57.659 2.052 1.254.494.583.741 1.286.741 2.109 0 1.153-.437 2.065-1.311 2.736-.874.659-2.052.988-3.534.988s-2.66-.329-3.534-.988c-.874-.671-1.311-1.583-1.311-2.736 0-.823.247-1.533.741-2.128.506-.595 1.197-1.007 2.071-1.235-.811-.241-1.432-.633-1.862-1.178-.431-.557-.646-1.21-.646-1.957 0-.722.19-1.349.57-1.881.38-.545.912-.963 1.596-1.254.696-.304 1.488-.456 2.375-.456s1.672.152 2.356.456c.696.291 1.235.709 1.615 1.254.38.532.57 1.159.57 1.881 0 .747-.222 1.4-.665 1.957-.431.545-1.039.937-1.824 1.178zm-5.035-3.021c0 .722.266 1.311.798 1.767.544.443 1.273.716 2.185.817.912-.101 1.634-.374 2.166-.817.544-.456.817-1.045.817-1.767 0-.747-.266-1.336-.798-1.767-.52-.431-1.248-.646-2.185-.646s-1.672.215-2.204.646c-.52.431-.779 1.02-.779 1.767zm2.983 8.816c1.064 0 1.881-.215 2.451-.646s.855-1.058.855-1.881c0-.747-.304-1.343-.912-1.786-.596-.456-1.394-.735-2.394-.836-1.001.101-1.805.38-2.413.836a2.11 2.11 0 0 0-.893 1.786c0 .823.285 1.45.855 1.881s1.387.646 2.451.646z"/><path d="M8.107 359.144c-1.008 0-1.902-.132-2.682-.396-.768-.276-1.452-.702-2.052-1.278l.468-.882c.636.564 1.278.966 1.926 1.206.66.24 1.44.36 2.34.36 1.08 0 1.92-.222 2.52-.666s.9-1.068.9-1.872c0-.468-.15-.846-.45-1.134-.288-.3-.66-.534-1.116-.702-.444-.168-1.038-.336-1.782-.504-.984-.216-1.788-.438-2.412-.666-.612-.24-1.128-.594-1.548-1.062s-.63-1.092-.63-1.872c0-.72.186-1.356.558-1.908s.9-.978 1.584-1.278c.696-.3 1.5-.45 2.412-.45.876 0 1.686.144 2.43.432.744.276 1.386.69 1.926 1.242l-.468.882c-.6-.54-1.212-.936-1.836-1.188a5.43 5.43 0 0 0-2.052-.378c-1.08 0-1.926.234-2.538.702-.6.468-.9 1.11-.9 1.926 0 .708.264 1.236.792 1.584s1.302.642 2.322.882l.522.126 2.286.666c.564.216 1.044.54 1.44.972s.594 1.008.594 1.728c0 .696-.186 1.314-.558 1.854-.372.528-.906.942-1.602 1.242-.684.288-1.482.432-2.394.432zm14.153-9.162V359h-1.062v-1.638c-.288.576-.696 1.014-1.224 1.314s-1.134.45-1.818.45c-1.056 0-1.854-.294-2.394-.882s-.81-1.458-.81-2.61v-5.652h1.08v5.58c0 .888.18 1.542.54 1.962s.918.63 1.674.63c.888 0 1.596-.276 2.124-.828.528-.564.792-1.308.792-2.232v-5.112h1.098zm12.714-.216c1.992 0 2.988 1.164 2.988 3.492V359h-1.098v-5.67c0-.912-.162-1.572-.486-1.98-.324-.42-.84-.63-1.548-.63-.828 0-1.482.276-1.962.828-.468.552-.702 1.302-.702 2.25V359h-1.098v-5.67c0-.912-.168-1.572-.504-1.98-.324-.42-.84-.63-1.548-.63-.816 0-1.47.276-1.962.828-.48.552-.72 1.302-.72 2.25V359h-1.08v-6.516c0-.936-.048-1.77-.144-2.502h1.044l.144 1.62c.252-.6.624-1.056 1.116-1.368.504-.312 1.086-.468 1.746-.468 1.452 0 2.382.588 2.79 1.764.252-.552.642-.984 1.17-1.296.54-.312 1.158-.468 1.854-.468zm15.645 0c1.992 0 2.988 1.164 2.988 3.492V359h-1.098v-5.67c0-.912-.162-1.572-.486-1.98-.324-.42-.84-.63-1.548-.63-.828 0-1.482.276-1.962.828-.468.552-.702 1.302-.702 2.25V359h-1.098v-5.67c0-.912-.168-1.572-.504-1.98-.324-.42-.84-.63-1.548-.63-.816 0-1.47.276-1.962.828-.48.552-.72 1.302-.72 2.25V359h-1.08v-6.516c0-.936-.048-1.77-.144-2.502h1.044l.144 1.62c.252-.6.624-1.056 1.116-1.368.504-.312 1.086-.468 1.746-.468 1.452 0 2.382.588 2.79 1.764.252-.552.642-.984 1.17-1.296.54-.312 1.158-.468 1.854-.468zm6.501 4.59v.054c0 1.212.276 2.142.828 2.79.564.636 1.38.954 2.448.954 1.08 0 2.07-.372 2.97-1.116l.432.864c-.396.372-.9.672-1.512.9a5.64 5.64 0 0 1-1.89.324c-1.368 0-2.448-.414-3.24-1.242s-1.188-1.968-1.188-3.42c0-.924.174-1.74.522-2.448.36-.72.858-1.272 1.494-1.656.636-.396 1.368-.594 2.196-.594 1.188 0 2.112.384 2.772 1.152.672.768 1.008 1.836 1.008 3.204v.234h-6.84zm3.06-3.69c-.828 0-1.5.252-2.016.756-.516.492-.84 1.188-.972 2.088h5.724c-.072-.924-.342-1.626-.81-2.106-.468-.492-1.11-.738-1.926-.738zm10.026-.9c.3 0 .564.024.792.072l-.054.99c-.228-.048-.504-.072-.828-.072-.912 0-1.596.294-2.052.882-.444.576-.666 1.266-.666 2.07V359h-1.08v-6.516c0-.936-.048-1.77-.144-2.502h1.044l.144 1.674c.228-.612.594-1.08 1.098-1.404.516-.324 1.098-.486 1.746-.486zm7.137-3.582h1.116V359h-1.116v-12.816zm8.462 3.582c2.172 0 3.258 1.164 3.258 3.492V359h-1.098v-5.67c0-.9-.186-1.56-.558-1.98-.36-.42-.93-.63-1.71-.63-.9 0-1.626.276-2.178.828s-.828 1.296-.828 2.232V359h-1.08v-6.516c0-.936-.048-1.77-.144-2.502h1.044l.144 1.656a2.92 2.92 0 0 1 1.242-1.386c.552-.324 1.188-.486 1.908-.486zm7.742 1.098v5.364c0 .72.138 1.218.414 1.494s.684.414 1.224.414a2.95 2.95 0 0 0 .972-.162v.99c-.384.096-.774.144-1.17.144-.792 0-1.416-.222-1.872-.666-.444-.444-.666-1.11-.666-1.998v-5.58h-1.782v-.882h1.782v-2.394l1.098-.414v2.808h2.664v.882h-2.664zm5.11 3.492v.054c0 1.212.276 2.142.828 2.79.564.636 1.38.954 2.448.954 1.08 0 2.07-.372 2.97-1.116l.432.864c-.396.372-.9.672-1.512.9a5.64 5.64 0 0 1-1.89.324c-1.368 0-2.448-.414-3.24-1.242s-1.188-1.968-1.188-3.42c0-.924.174-1.74.522-2.448.36-.72.858-1.272 1.494-1.656.636-.396 1.368-.594 2.196-.594 1.188 0 2.112.384 2.772 1.152.672.768 1.008 1.836 1.008 3.204v.234h-6.84zm3.06-3.69c-.828 0-1.5.252-2.016.756-.516.492-.84 1.188-.972 2.088h5.724c-.072-.924-.342-1.626-.81-2.106-.468-.492-1.11-.738-1.926-.738zm10.025-.9c.3 0 .564.024.792.072l-.054.99c-.228-.048-.504-.072-.828-.072-.912 0-1.596.294-2.052.882-.444.576-.666 1.266-.666 2.07V359h-1.08v-6.516c0-.936-.048-1.77-.144-2.502h1.044l.144 1.674c.228-.612.594-1.08 1.098-1.404.516-.324 1.098-.486 1.746-.486zm6.582 0c2.172 0 3.258 1.164 3.258 3.492V359h-1.098v-5.67c0-.9-.186-1.56-.558-1.98-.36-.42-.93-.63-1.71-.63-.9 0-1.626.276-2.178.828s-.828 1.296-.828 2.232V359h-1.08v-6.516c0-.936-.048-1.77-.144-2.502h1.044l.144 1.656a2.92 2.92 0 0 1 1.242-1.386c.552-.324 1.188-.486 1.908-.486zm9.146 9.36c-1.464 0-2.622-.402-3.474-1.206l.396-.846c.48.396.96.678 1.44.846.492.168 1.056.252 1.692.252.744 0 1.308-.126 1.692-.378a1.28 1.28 0 0 0 .594-1.134c0-.408-.132-.726-.396-.954-.252-.24-.672-.432-1.26-.576l-1.53-.342c-.72-.168-1.29-.468-1.71-.9-.408-.432-.612-.936-.612-1.512 0-.792.3-1.422.9-1.89.612-.48 1.422-.72 2.43-.72.636 0 1.224.102 1.764.306.552.204 1.008.498 1.368.882l-.414.846c-.828-.72-1.734-1.08-2.718-1.08-.696 0-1.236.138-1.62.414s-.576.66-.576 1.152c0 .408.12.738.36.99.252.252.636.438 1.152.558l1.548.378c1.62.36 2.43 1.158 2.43 2.394 0 .756-.312 1.368-.936 1.836-.624.456-1.464.684-2.52.684zm10.155-9.36c2.172 0 3.258 1.164 3.258 3.492V359h-1.098v-5.67c0-.9-.186-1.56-.558-1.98-.36-.42-.93-.63-1.71-.63-.9 0-1.626.276-2.178.828s-.828 1.296-.828 2.232V359h-1.08v-13.248h1.08v5.796c.288-.588.702-1.032 1.242-1.332s1.164-.45 1.872-.45zm6.212.216h1.08V359h-1.08v-9.018zm1.296-3.726v1.404h-1.458v-1.404h1.458zm7.012 3.51c.792 0 1.488.198 2.088.594.612.384 1.086.936 1.422 1.656.336.708.504 1.53.504 2.466s-.168 1.752-.504 2.448c-.324.696-.792 1.236-1.404 1.62s-1.314.576-2.106.576c-.756 0-1.404-.162-1.944-.486-.528-.336-.924-.816-1.188-1.44v5.688h-1.08v-10.404c0-.936-.048-1.77-.144-2.502h1.044l.144 1.764c.264-.636.666-1.122 1.206-1.458.552-.348 1.206-.522 1.962-.522zm-.144 8.388c.948 0 1.686-.318 2.214-.954.528-.648.792-1.554.792-2.718 0-1.176-.264-2.094-.792-2.754-.528-.672-1.26-1.008-2.196-1.008-.96 0-1.698.324-2.214.972s-.774 1.566-.774 2.754c0 1.176.258 2.088.774 2.736s1.248.972 2.196.972zm7.493-.72v1.152c0 .456-.072.876-.216 1.26s-.384.744-.72 1.08l-.576-.45c.408-.456.636-.948.684-1.476h-.702v-1.566h1.53zm14.554-7.452V359h-1.062v-1.638c-.288.576-.696 1.014-1.224 1.314s-1.134.45-1.818.45c-1.056 0-1.854-.294-2.394-.882s-.81-1.458-.81-2.61v-5.652h1.08v5.58c0 .888.18 1.542.54 1.962s.918.63 1.674.63c.888 0 1.596-.276 2.124-.828.528-.564.792-1.308.792-2.232v-5.112h1.098zm5.928 9.144c-1.464 0-2.622-.402-3.474-1.206l.396-.846c.48.396.96.678 1.44.846.492.168 1.056.252 1.692.252.744 0 1.308-.126 1.692-.378a1.28 1.28 0 0 0 .594-1.134c0-.408-.132-.726-.396-.954-.252-.24-.672-.432-1.26-.576l-1.53-.342c-.72-.168-1.29-.468-1.71-.9-.408-.432-.612-.936-.612-1.512 0-.792.3-1.422.9-1.89.612-.48 1.422-.72 2.43-.72.636 0 1.224.102 1.764.306.552.204 1.008.498 1.368.882l-.414.846c-.828-.72-1.734-1.08-2.718-1.08-.696 0-1.236.138-1.62.414s-.576.66-.576 1.152c0 .408.12.738.36.99.252.252.636.438 1.152.558l1.548.378c1.62.36 2.43 1.158 2.43 2.394 0 .756-.312 1.368-.936 1.836-.624.456-1.464.684-2.52.684zm6.536-4.77v.054c0 1.212.276 2.142.828 2.79.564.636 1.38.954 2.448.954 1.08 0 2.07-.372 2.97-1.116l.432.864c-.396.372-.9.672-1.512.9a5.64 5.64 0 0 1-1.89.324c-1.368 0-2.448-.414-3.24-1.242s-1.188-1.968-1.188-3.42c0-.924.174-1.74.522-2.448.36-.72.858-1.272 1.494-1.656.636-.396 1.368-.594 2.196-.594 1.188 0 2.112.384 2.772 1.152.672.768 1.008 1.836 1.008 3.204v.234h-6.84zm3.06-3.69c-.828 0-1.5.252-2.016.756-.516.492-.84 1.188-.972 2.088h5.724c-.072-.924-.342-1.626-.81-2.106-.468-.492-1.11-.738-1.926-.738zm13.788-4.914V359h-1.098v-1.728c-.264.6-.666 1.062-1.206 1.386-.528.312-1.164.468-1.908.468-.792 0-1.494-.192-2.106-.576-.6-.396-1.068-.948-1.404-1.656-.336-.72-.504-1.548-.504-2.484s.162-1.752.486-2.448c.336-.708.804-1.248 1.404-1.62.612-.384 1.32-.576 2.124-.576.732 0 1.362.156 1.89.468a2.96 2.96 0 0 1 1.224 1.368v-5.85h1.098zm-4.068 12.402c.948 0 1.68-.324 2.196-.972s.774-1.56.774-2.736-.258-2.088-.774-2.736c-.516-.66-1.242-.99-2.178-.99-.96 0-1.704.324-2.232.972s-.792 1.554-.792 2.718c0 1.176.264 2.094.792 2.754s1.266.99 2.214.99zm11.803-11.97h1.116V359h-1.116v-12.816zm8.461 3.582c2.172 0 3.258 1.164 3.258 3.492V359h-1.098v-5.67c0-.9-.186-1.56-.558-1.98-.36-.42-.93-.63-1.71-.63-.9 0-1.626.276-2.178.828s-.828 1.296-.828 2.232V359h-1.08v-6.516c0-.936-.048-1.77-.144-2.502h1.044l.144 1.656a2.92 2.92 0 0 1 1.242-1.386c.552-.324 1.188-.486 1.908-.486zm9.146 9.36c-1.464 0-2.622-.402-3.474-1.206l.396-.846c.48.396.96.678 1.44.846.492.168 1.056.252 1.692.252.744 0 1.308-.126 1.692-.378a1.28 1.28 0 0 0 .594-1.134c0-.408-.132-.726-.396-.954-.252-.24-.672-.432-1.26-.576l-1.53-.342c-.72-.168-1.29-.468-1.71-.9-.408-.432-.612-.936-.612-1.512 0-.792.3-1.422.9-1.89.612-.48 1.422-.72 2.43-.72.636 0 1.224.102 1.764.306.552.204 1.008.498 1.368.882l-.414.846c-.828-.72-1.734-1.08-2.718-1.08-.696 0-1.236.138-1.62.414s-.576.66-.576 1.152c0 .408.12.738.36.99.252.252.636.438 1.152.558l1.548.378c1.62.36 2.43 1.158 2.43 2.394 0 .756-.312 1.368-.936 1.836-.624.456-1.464.684-2.52.684zm7.403-8.262v5.364c0 .72.138 1.218.414 1.494s.684.414 1.224.414a2.95 2.95 0 0 0 .972-.162v.99c-.384.096-.774.144-1.17.144-.792 0-1.416-.222-1.872-.666-.444-.444-.666-1.11-.666-1.998v-5.58h-1.782v-.882h1.782v-2.394l1.098-.414v2.808h2.664v.882h-2.664zm12.185-.882V359h-1.098v-1.728c-.264.6-.666 1.062-1.206 1.386-.528.312-1.164.468-1.908.468-.804 0-1.512-.186-2.124-.558-.6-.384-1.068-.924-1.404-1.62-.324-.708-.486-1.53-.486-2.466s.168-1.758.504-2.466c.336-.72.804-1.272 1.404-1.656.612-.396 1.314-.594 2.106-.594.732 0 1.362.156 1.89.468a2.96 2.96 0 0 1 1.224 1.368v-1.62h1.098zm-4.05 8.172c.936 0 1.662-.324 2.178-.972s.774-1.56.774-2.736c0-1.188-.258-2.106-.774-2.754s-1.248-.972-2.196-.972-1.686.336-2.214 1.008c-.528.66-.792 1.578-.792 2.754 0 1.164.264 2.07.792 2.718.528.636 1.272.954 2.232.954zm11.246-8.388c.792 0 1.488.198 2.088.594.612.384 1.086.936 1.422 1.656.336.708.504 1.53.504 2.466s-.168 1.752-.504 2.448c-.324.696-.792 1.236-1.404 1.62s-1.314.576-2.106.576c-.756 0-1.404-.162-1.944-.486-.528-.336-.924-.816-1.188-1.44v5.688h-1.08v-10.404c0-.936-.048-1.77-.144-2.502h1.044l.144 1.764c.264-.636.666-1.122 1.206-1.458.552-.348 1.206-.522 1.962-.522zm-.144 8.388c.948 0 1.686-.318 2.214-.954.528-.648.792-1.554.792-2.718 0-1.176-.264-2.094-.792-2.754-.528-.672-1.26-1.008-2.196-1.008-.96 0-1.698.324-2.214.972s-.774 1.566-.774 2.754c0 1.176.258 2.088.774 2.736s1.248.972 2.196.972zm14.217-8.172V359h-1.098v-1.728c-.264.6-.666 1.062-1.206 1.386-.528.312-1.164.468-1.908.468-.804 0-1.512-.186-2.124-.558-.6-.384-1.068-.924-1.404-1.62-.324-.708-.486-1.53-.486-2.466s.168-1.758.504-2.466c.336-.72.804-1.272 1.404-1.656.612-.396 1.314-.594 2.106-.594.732 0 1.362.156 1.89.468a2.96 2.96 0 0 1 1.224 1.368v-1.62h1.098zm-4.05 8.172c.936 0 1.662-.324 2.178-.972s.774-1.56.774-2.736c0-1.188-.258-2.106-.774-2.754s-1.248-.972-2.196-.972-1.686.336-2.214 1.008c-.528.66-.792 1.578-.792 2.754 0 1.164.264 2.07.792 2.718.528.636 1.272.954 2.232.954zm14.757-8.172v9.054c0 1.308-.324 2.298-.972 2.97s-1.602 1.008-2.862 1.008c-1.344 0-2.514-.324-3.51-.972l.216-.954c.588.348 1.128.594 1.62.738s1.056.216 1.692.216c.9 0 1.578-.246 2.034-.738.468-.492.702-1.212.702-2.16v-2.322c-.276.612-.684 1.086-1.224 1.422-.54.324-1.188.486-1.944.486-.792 0-1.494-.186-2.106-.558-.612-.384-1.092-.912-1.44-1.584-.336-.684-.504-1.464-.504-2.34 0-.888.168-1.668.504-2.34.348-.684.828-1.212 1.44-1.584s1.314-.558 2.106-.558c.756 0 1.398.156 1.926.468a2.96 2.96 0 0 1 1.224 1.368v-1.62h1.098zm-4.104 7.758c.936 0 1.668-.312 2.196-.936.54-.624.81-1.476.81-2.556 0-1.092-.27-1.95-.81-2.574-.528-.636-1.26-.954-2.196-.954-.948 0-1.692.318-2.232.954-.54.624-.81 1.482-.81 2.574s.27 1.95.81 2.574c.54.612 1.284.918 2.232.918zm7.663-3.384v.054c0 1.212.276 2.142.828 2.79.564.636 1.38.954 2.448.954 1.08 0 2.07-.372 2.97-1.116l.432.864c-.396.372-.9.672-1.512.9a5.64 5.64 0 0 1-1.89.324c-1.368 0-2.448-.414-3.24-1.242s-1.188-1.968-1.188-3.42c0-.924.174-1.74.522-2.448.36-.72.858-1.272 1.494-1.656.636-.396 1.368-.594 2.196-.594 1.188 0 2.112.384 2.772 1.152.672.768 1.008 1.836 1.008 3.204v.234h-6.84zm3.06-3.69c-.828 0-1.5.252-2.016.756-.516.492-.84 1.188-.972 2.088h5.724c-.072-.924-.342-1.626-.81-2.106-.468-.492-1.11-.738-1.926-.738zm-269.512 28.1c.792 0 1.488.198 2.088.594.612.384 1.086.936 1.422 1.656.336.708.504 1.53.504 2.466s-.168 1.752-.504 2.448c-.324.696-.792 1.236-1.404 1.62s-1.314.576-2.106.576c-.756 0-1.404-.162-1.944-.486-.528-.336-.924-.816-1.188-1.44v5.688h-1.08v-10.404c0-.936-.048-1.77-.144-2.502h1.044l.144 1.764c.264-.636.666-1.122 1.206-1.458.552-.348 1.206-.522 1.962-.522zm-.144 8.388c.948 0 1.686-.318 2.214-.954.528-.648.792-1.554.792-2.718 0-1.176-.264-2.094-.792-2.754-.528-.672-1.26-1.008-2.196-1.008-.96 0-1.698.324-2.214.972s-.774 1.566-.774 2.754c0 1.176.258 2.088.774 2.736s1.248.972 2.196.972zm6.567-12.402h1.08V388h-1.08v-13.248zm11.746 4.23V388h-1.098v-1.728c-.264.6-.666 1.062-1.206 1.386-.528.312-1.164.468-1.908.468-.804 0-1.512-.186-2.124-.558-.6-.384-1.068-.924-1.404-1.62-.324-.708-.486-1.53-.486-2.466s.168-1.758.504-2.466c.336-.72.804-1.272 1.404-1.656.612-.396 1.314-.594 2.106-.594.732 0 1.362.156 1.89.468a2.96 2.96 0 0 1 1.224 1.368v-1.62h1.098zm-4.05 8.172c.936 0 1.662-.324 2.178-.972s.774-1.56.774-2.736c0-1.188-.258-2.106-.774-2.754s-1.248-.972-2.196-.972-1.686.336-2.214 1.008c-.528.66-.792 1.578-.792 2.754 0 1.164.264 2.07.792 2.718.528.636 1.272.954 2.232.954zm8.565-7.29v5.364c0 .72.138 1.218.414 1.494s.684.414 1.224.414a2.95 2.95 0 0 0 .972-.162v.99c-.384.096-.774.144-1.17.144-.792 0-1.416-.222-1.872-.666-.444-.444-.666-1.11-.666-1.998v-5.58h-1.782v-.882h1.782v-2.394l1.098-.414v2.808h2.664v.882h-2.664zm7.895-4.194c-.516 0-.912.138-1.188.414s-.414.768-.414 1.476v1.422h2.322v.882h-2.322V388H45.25v-8.136h-1.764v-.882h1.764v-1.62c0-.9.222-1.572.666-2.016s1.056-.666 1.836-.666c.36 0 .732.048 1.116.144v.99c-.324-.096-.63-.144-.918-.144zm6.216 12.456c-.828 0-1.56-.192-2.196-.576-.624-.384-1.11-.93-1.458-1.638-.336-.708-.504-1.53-.504-2.466s.168-1.758.504-2.466c.348-.708.834-1.254 1.458-1.638.636-.384 1.368-.576 2.196-.576.816 0 1.536.192 2.16.576s1.104.93 1.44 1.638c.348.708.522 1.53.522 2.466s-.174 1.758-.522 2.466c-.336.708-.816 1.254-1.44 1.638s-1.344.576-2.16.576zm-.018-.972c.96 0 1.698-.318 2.214-.954.528-.648.792-1.566.792-2.754 0-1.176-.264-2.088-.792-2.736-.528-.66-1.26-.99-2.196-.99-.948 0-1.686.33-2.214.99-.528.648-.792 1.56-.792 2.736 0 1.2.258 2.118.774 2.754s1.254.954 2.214.954zm10.432-8.388c.3 0 .564.024.792.072l-.054.99c-.228-.048-.504-.072-.828-.072-.912 0-1.596.294-2.052.882-.444.576-.666 1.266-.666 2.07V388h-1.08v-6.516c0-.936-.048-1.77-.144-2.502h1.044l.144 1.674c.228-.612.594-1.08 1.098-1.404.516-.324 1.098-.486 1.746-.486zm12.107 0c1.992 0 2.988 1.164 2.988 3.492V388h-1.098v-5.67c0-.912-.162-1.572-.486-1.98-.324-.42-.84-.63-1.548-.63-.828 0-1.482.276-1.962.828-.468.552-.702 1.302-.702 2.25V388h-1.098v-5.67c0-.912-.168-1.572-.504-1.98-.324-.42-.84-.63-1.548-.63-.816 0-1.47.276-1.962.828-.48.552-.72 1.302-.72 2.25V388h-1.08v-6.516c0-.936-.048-1.77-.144-2.502h1.044l.144 1.62c.252-.6.624-1.056 1.116-1.368.504-.312 1.086-.468 1.746-.468 1.452 0 2.382.588 2.79 1.764.252-.552.642-.984 1.17-1.296.54-.312 1.158-.468 1.854-.468zm12.042 1.098v5.364c0 .72.138 1.218.414 1.494s.684.414 1.224.414a2.95 2.95 0 0 0 .972-.162v.99c-.384.096-.774.144-1.17.144-.792 0-1.416-.222-1.872-.666-.444-.444-.666-1.11-.666-1.998v-5.58h-1.782v-.882h1.782v-2.394l1.098-.414v2.808h2.664v.882h-2.664zm8.116 8.262c-.828 0-1.56-.192-2.196-.576-.624-.384-1.11-.93-1.458-1.638-.336-.708-.504-1.53-.504-2.466s.168-1.758.504-2.466c.348-.708.834-1.254 1.458-1.638.636-.384 1.368-.576 2.196-.576.816 0 1.536.192 2.16.576s1.105.93 1.441 1.638c.348.708.522 1.53.522 2.466s-.174 1.758-.522 2.466c-.336.708-.817 1.254-1.44 1.638s-1.344.576-2.16.576zm-.018-.972c.96 0 1.698-.318 2.214-.954.528-.648.792-1.566.792-2.754 0-1.176-.264-2.088-.792-2.736-.528-.66-1.26-.99-2.196-.99-.948 0-1.686.33-2.214.99-.528.648-.792 1.56-.792 2.736 0 1.2.258 2.118.774 2.754s1.254.954 2.214.954zm14.785.972c-.852 0-1.596-.192-2.232-.576s-1.128-.924-1.476-1.62c-.348-.708-.522-1.524-.522-2.448 0-.936.174-1.758.522-2.466.348-.72.846-1.272 1.494-1.656.648-.396 1.398-.594 2.25-.594a4.75 4.75 0 0 1 1.746.324c.564.204 1.026.492 1.386.864l-.432.864c-.468-.384-.918-.66-1.35-.828a3.3 3.3 0 0 0-1.314-.27c-.972 0-1.74.336-2.304 1.008-.564.66-.846 1.578-.846 2.754 0 1.152.276 2.052.828 2.7.564.648 1.338.972 2.322.972.456 0 .894-.084 1.314-.252.432-.18.882-.456 1.35-.828l.432.846c-.384.372-.864.666-1.44.882-.564.216-1.14.324-1.728.324zm9.058-9.36c.3 0 .564.024.792.072l-.054.99c-.228-.048-.504-.072-.828-.072-.912 0-1.596.294-2.052.882-.444.576-.666 1.266-.666 2.07V388h-1.08v-6.516c0-.936-.048-1.77-.144-2.502h1.044l.144 1.674c.228-.612.594-1.08 1.098-1.404.516-.324 1.098-.486 1.746-.486zm2.788 4.59v.054c0 1.212.276 2.142.828 2.79.564.636 1.38.954 2.448.954 1.08 0 2.07-.372 2.97-1.116l.432.864c-.396.372-.9.672-1.512.9a5.64 5.64 0 0 1-1.89.324c-1.368 0-2.448-.414-3.24-1.242s-1.188-1.968-1.188-3.42c0-.924.174-1.74.522-2.448.36-.72.858-1.272 1.494-1.656.636-.396 1.368-.594 2.196-.594 1.188 0 2.112.384 2.772 1.152.672.768 1.008 1.836 1.008 3.204v.234h-6.84zm3.06-3.69c-.828 0-1.5.252-2.016.756-.516.492-.84 1.188-.972 2.088h5.724c-.072-.924-.342-1.626-.81-2.106-.468-.492-1.11-.738-1.926-.738zm13.787-.684V388h-1.098v-1.728c-.264.6-.666 1.062-1.206 1.386-.528.312-1.164.468-1.908.468-.804 0-1.512-.186-2.124-.558-.6-.384-1.068-.924-1.404-1.62-.324-.708-.486-1.53-.486-2.466s.168-1.758.504-2.466c.336-.72.804-1.272 1.404-1.656.612-.396 1.314-.594 2.106-.594.732 0 1.362.156 1.89.468a2.96 2.96 0 0 1 1.224 1.368v-1.62h1.098zm-4.05 8.172c.936 0 1.662-.324 2.178-.972s.774-1.56.774-2.736c0-1.188-.258-2.106-.774-2.754s-1.248-.972-2.196-.972-1.686.336-2.214 1.008c-.528.66-.792 1.578-.792 2.754 0 1.164.264 2.07.792 2.718.528.636 1.272.954 2.232.954zm8.565-7.29v5.364c0 .72.138 1.218.414 1.494s.684.414 1.224.414a2.95 2.95 0 0 0 .972-.162v.99c-.384.096-.774.144-1.17.144-.792 0-1.416-.222-1.872-.666-.444-.444-.666-1.11-.666-1.998v-5.58h-1.782v-.882h1.782v-2.394l1.098-.414v2.808h2.664v.882h-2.664zm5.11 3.492v.054c0 1.212.276 2.142.828 2.79.564.636 1.38.954 2.448.954 1.08 0 2.07-.372 2.97-1.116l.432.864c-.396.372-.9.672-1.512.9a5.64 5.64 0 0 1-1.89.324c-1.368 0-2.448-.414-3.24-1.242s-1.188-1.968-1.188-3.42c0-.924.174-1.74.522-2.448.36-.72.858-1.272 1.494-1.656.636-.396 1.368-.594 2.196-.594 1.188 0 2.112.384 2.772 1.152.672.768 1.008 1.836 1.008 3.204v.234h-6.84zm3.06-3.69c-.828 0-1.5.252-2.016.756-.516.492-.84 1.188-.972 2.088h5.724c-.072-.924-.342-1.626-.81-2.106-.468-.492-1.11-.738-1.926-.738zm10.726-4.914h1.08V388h-1.08v-13.248zm11.745 4.23V388h-1.098v-1.728c-.264.6-.666 1.062-1.206 1.386-.528.312-1.164.468-1.908.468-.804 0-1.512-.186-2.124-.558-.6-.384-1.068-.924-1.404-1.62-.324-.708-.486-1.53-.486-2.466s.168-1.758.504-2.466c.336-.72.804-1.272 1.404-1.656.612-.396 1.314-.594 2.106-.594.732 0 1.362.156 1.89.468a2.96 2.96 0 0 1 1.224 1.368v-1.62h1.098zm-4.05 8.172c.936 0 1.662-.324 2.178-.972s.774-1.56.774-2.736c0-1.188-.258-2.106-.774-2.754s-1.248-.972-2.196-.972-1.686.336-2.214 1.008c-.528.66-.792 1.578-.792 2.754 0 1.164.264 2.07.792 2.718.528.636 1.272.954 2.232.954zm11.229-8.388c2.172 0 3.258 1.164 3.258 3.492V388h-1.098v-5.67c0-.9-.186-1.56-.558-1.98-.36-.42-.93-.63-1.71-.63-.9 0-1.626.276-2.178.828s-.828 1.296-.828 2.232V388h-1.08v-6.516c0-.936-.048-1.77-.144-2.502h1.044l.144 1.656a2.92 2.92 0 0 1 1.242-1.386c.552-.324 1.188-.486 1.908-.486zm13.862-4.014V388h-1.098v-1.728c-.264.6-.666 1.062-1.206 1.386-.528.312-1.164.468-1.908.468-.792 0-1.494-.192-2.106-.576-.6-.396-1.068-.948-1.404-1.656-.336-.72-.504-1.548-.504-2.484s.162-1.752.486-2.448c.336-.708.804-1.248 1.404-1.62.612-.384 1.32-.576 2.124-.576.732 0 1.362.156 1.89.468a2.96 2.96 0 0 1 1.224 1.368v-5.85h1.098zm-4.068 12.402c.948 0 1.68-.324 2.196-.972s.774-1.56.774-2.736-.258-2.088-.774-2.736c-.516-.66-1.242-.99-2.178-.99-.96 0-1.704.324-2.232.972s-.792 1.554-.792 2.718c0 1.176.264 2.094.792 2.754s1.266.99 2.214.99zm7.053-8.172h1.08V388h-1.08v-9.018zm1.296-3.726v1.404h-1.458v-1.404h1.458zm6.994 3.51c2.172 0 3.258 1.164 3.258 3.492V388h-1.098v-5.67c0-.9-.186-1.56-.558-1.98-.36-.42-.93-.63-1.71-.63-.9 0-1.626.276-2.178.828s-.828 1.296-.828 2.232V388h-1.08v-6.516c0-.936-.048-1.77-.144-2.502h1.044l.144 1.656a2.92 2.92 0 0 1 1.242-1.386c.552-.324 1.188-.486 1.908-.486zm13.934.216v9.054c0 1.308-.324 2.298-.972 2.97s-1.602 1.008-2.862 1.008c-1.344 0-2.514-.324-3.51-.972l.216-.954c.588.348 1.128.594 1.62.738s1.056.216 1.692.216c.9 0 1.578-.246 2.034-.738.468-.492.702-1.212.702-2.16v-2.322c-.276.612-.684 1.086-1.224 1.422-.54.324-1.188.486-1.944.486-.792 0-1.494-.186-2.106-.558-.612-.384-1.092-.912-1.44-1.584-.336-.684-.504-1.464-.504-2.34 0-.888.168-1.668.504-2.34.348-.684.828-1.212 1.44-1.584s1.314-.558 2.106-.558c.756 0 1.398.156 1.926.468a2.96 2.96 0 0 1 1.224 1.368v-1.62h1.098zm-4.104 7.758c.936 0 1.668-.312 2.196-.936.54-.624.81-1.476.81-2.556 0-1.092-.27-1.95-.81-2.574-.528-.636-1.26-.954-2.196-.954-.948 0-1.692.318-2.232.954-.54.624-.81 1.482-.81 2.574s.27 1.95.81 2.574c.54.612 1.284.918 2.232.918zm15.887-7.974c.792 0 1.488.198 2.088.594.612.384 1.086.936 1.422 1.656.336.708.504 1.53.504 2.466s-.168 1.752-.504 2.448c-.324.696-.792 1.236-1.404 1.62s-1.314.576-2.106.576c-.756 0-1.404-.162-1.944-.486-.528-.336-.924-.816-1.188-1.44v5.688h-1.08v-10.404c0-.936-.048-1.77-.144-2.502h1.044l.144 1.764c.264-.636.666-1.122 1.206-1.458.552-.348 1.206-.522 1.962-.522zm-.144 8.388c.948 0 1.686-.318 2.214-.954.528-.648.792-1.554.792-2.718 0-1.176-.264-2.094-.792-2.754-.528-.672-1.26-1.008-2.196-1.008-.96 0-1.698.324-2.214.972s-.774 1.566-.774 2.754c0 1.176.258 2.088.774 2.736s1.248.972 2.196.972zm14.217-8.172V388h-1.098v-1.728c-.264.6-.666 1.062-1.206 1.386-.528.312-1.164.468-1.908.468-.804 0-1.512-.186-2.124-.558-.6-.384-1.068-.924-1.404-1.62-.324-.708-.486-1.53-.486-2.466s.168-1.758.504-2.466c.336-.72.804-1.272 1.404-1.656.612-.396 1.314-.594 2.106-.594.732 0 1.362.156 1.89.468a2.96 2.96 0 0 1 1.224 1.368v-1.62h1.098zm-4.05 8.172c.936 0 1.662-.324 2.178-.972s.774-1.56.774-2.736c0-1.188-.258-2.106-.774-2.754s-1.248-.972-2.196-.972-1.686.336-2.214 1.008c-.528.66-.792 1.578-.792 2.754 0 1.164.264 2.07.792 2.718.528.636 1.272.954 2.232.954zm14.757-8.172v9.054c0 1.308-.324 2.298-.972 2.97s-1.602 1.008-2.862 1.008c-1.344 0-2.514-.324-3.51-.972l.216-.954c.588.348 1.128.594 1.62.738s1.056.216 1.692.216c.9 0 1.578-.246 2.034-.738.468-.492.702-1.212.702-2.16v-2.322c-.276.612-.684 1.086-1.224 1.422-.54.324-1.188.486-1.944.486-.792 0-1.494-.186-2.106-.558-.612-.384-1.092-.912-1.44-1.584-.336-.684-.504-1.464-.504-2.34 0-.888.168-1.668.504-2.34.348-.684.828-1.212 1.44-1.584s1.314-.558 2.106-.558c.756 0 1.398.156 1.926.468a2.96 2.96 0 0 1 1.224 1.368v-1.62h1.098zm-4.104 7.758c.936 0 1.668-.312 2.196-.936.54-.624.81-1.476.81-2.556 0-1.092-.27-1.95-.81-2.574-.528-.636-1.26-.954-2.196-.954-.948 0-1.692.318-2.232.954-.54.624-.81 1.482-.81 2.574s.27 1.95.81 2.574c.54.612 1.284.918 2.232.918zm7.663-3.384v.054c0 1.212.276 2.142.828 2.79.564.636 1.38.954 2.448.954 1.08 0 2.07-.372 2.97-1.116l.432.864c-.396.372-.9.672-1.512.9a5.64 5.64 0 0 1-1.89.324c-1.368 0-2.448-.414-3.24-1.242s-1.188-1.968-1.188-3.42c0-.924.174-1.74.522-2.448.36-.72.858-1.272 1.494-1.656.636-.396 1.368-.594 2.196-.594 1.188 0 2.112.384 2.772 1.152.672.768 1.008 1.836 1.008 3.204v.234h-6.84zm3.06-3.69c-.828 0-1.5.252-2.016.756-.516.492-.84 1.188-.972 2.088h5.724c-.072-.924-.342-1.626-.81-2.106-.468-.492-1.11-.738-1.926-.738zm9.071 8.46c-1.464 0-2.622-.402-3.474-1.206l.396-.846c.48.396.96.678 1.44.846.492.168 1.056.252 1.692.252.744 0 1.308-.126 1.692-.378a1.28 1.28 0 0 0 .594-1.134c0-.408-.132-.726-.396-.954-.252-.24-.672-.432-1.26-.576l-1.53-.342c-.72-.168-1.29-.468-1.71-.9-.408-.432-.612-.936-.612-1.512 0-.792.3-1.422.9-1.89.612-.48 1.422-.72 2.43-.72.636 0 1.224.102 1.764.306.552.204 1.008.498 1.368.882l-.414.846c-.828-.72-1.734-1.08-2.718-1.08-.696 0-1.236.138-1.62.414s-.576.66-.576 1.152c0 .408.12.738.36.99.252.252.636.438 1.152.558l1.548.378c1.62.36 2.43 1.158 2.43 2.394 0 .756-.312 1.368-.936 1.836-.624.456-1.464.684-2.52.684zm7.151-1.692V388h-1.53v-1.566h1.53z"/></g><path stroke="#08fdd8" stroke-width="3" d="M640 527.5h225"/><g fill="#fff"><path d="M624.352 495.52c3.563 0 5.344 2.123 5.344 6.368V512h-2.592v-9.984c0-1.515-.267-2.613-.8-3.296-.512-.683-1.355-1.024-2.528-1.024-1.365 0-2.432.459-3.2 1.376s-1.152 2.165-1.152 3.744V512h-2.592v-9.984c0-1.493-.267-2.581-.8-3.264-.533-.704-1.387-1.056-2.56-1.056-1.365 0-2.443.459-3.232 1.376-.768.917-1.152 2.165-1.152 3.744V512h-2.592v-11.584c0-1.664-.085-3.168-.256-4.512h2.464l.256 2.816c.448-1.024 1.109-1.813 1.984-2.368.896-.555 1.931-.832 3.104-.832 1.28 0 2.325.256 3.136.768s1.408 1.301 1.792 2.368a5.5 5.5 0 0 1 2.144-2.272c.96-.576 2.037-.864 3.232-.864zm26.941 8.352h-11.808c.021 2.048.491 3.595 1.408 4.64.939 1.045 2.293 1.568 4.064 1.568 1.877 0 3.605-.629 5.184-1.888l.864 1.888c-.704.661-1.611 1.184-2.72 1.568-1.088.384-2.208.576-3.36.576-2.517 0-4.491-.736-5.92-2.208-1.429-1.493-2.144-3.531-2.144-6.112 0-1.643.32-3.093.96-4.352.64-1.28 1.536-2.272 2.688-2.976s2.464-1.056 3.936-1.056c2.133 0 3.808.704 5.024 2.112 1.216 1.387 1.824 3.307 1.824 5.76v.48zm-6.816-6.336c-1.344 0-2.443.405-3.296 1.216-.832.811-1.365 1.952-1.6 3.424h9.376c-.128-1.515-.576-2.667-1.344-3.456-.747-.789-1.792-1.184-3.136-1.184zm28.126-9.088V512h-2.56v-2.912c-.469 1.003-1.184 1.781-2.144 2.336-.938.533-2.037.8-3.296.8-1.408 0-2.656-.352-3.744-1.056-1.066-.704-1.898-1.685-2.496-2.944-.597-1.28-.896-2.752-.896-4.416s.288-3.115.864-4.352c.598-1.259 1.44-2.229 2.528-2.912s2.336-1.024 3.744-1.024c1.259 0 2.358.277 3.296.832a5.06 5.06 0 0 1 2.112 2.272v-10.176h2.592zm-7.488 21.632c1.579 0 2.795-.533 3.648-1.6.854-1.088 1.28-2.624 1.28-4.608 0-1.963-.426-3.477-1.28-4.544-.853-1.088-2.069-1.632-3.648-1.632s-2.816.533-3.712 1.6c-.874 1.067-1.312 2.571-1.312 4.512 0 1.984.438 3.531 1.312 4.64.896 1.088 2.134 1.632 3.712 1.632zm15.7-14.176h2.592V512h-2.592v-16.096zm2.912-6.816v2.944h-3.168v-2.944h3.168zm22.089 6.816V512h-2.56v-2.912a5.17 5.17 0 0 1-2.144 2.336c-.939.533-2.038.8-3.296.8-1.43 0-2.688-.341-3.776-1.024-1.067-.683-1.899-1.643-2.496-2.88-.576-1.259-.864-2.72-.864-4.384s.298-3.125.896-4.384c.597-1.28 1.429-2.272 2.496-2.976 1.088-.704 2.336-1.056 3.744-1.056 1.258 0 2.357.277 3.296.832s1.653 1.333 2.144 2.336v-2.784h2.56zm-7.488 14.176c1.578 0 2.794-.533 3.648-1.6.853-1.088 1.28-2.624 1.28-4.608s-.427-3.509-1.28-4.576-2.07-1.6-3.648-1.6-2.816.555-3.712 1.664c-.875 1.088-1.312 2.613-1.312 4.576s.437 3.477 1.312 4.544 2.112 1.6 3.712 1.6zm19.155-12.128v8.8c0 1.195.246 2.037.736 2.528.491.469 1.184.704 2.08.704a5.24 5.24 0 0 0 1.728-.288v2.208c-.661.213-1.408.32-2.24.32-1.536 0-2.741-.427-3.616-1.28-.853-.875-1.28-2.155-1.28-3.84v-9.152h-3.136v-2.048h3.136v-4.128l2.592-.928v5.056h4.608v2.048h-4.608zm25.108-2.048V512h-2.56v-2.912a5.17 5.17 0 0 1-2.144 2.336c-.939.533-2.038.8-3.296.8-1.43 0-2.688-.341-3.776-1.024-1.067-.683-1.899-1.643-2.496-2.88-.576-1.259-.864-2.72-.864-4.384s.298-3.125.896-4.384c.597-1.28 1.429-2.272 2.496-2.976 1.088-.704 2.336-1.056 3.744-1.056 1.258 0 2.357.277 3.296.832s1.653 1.333 2.144 2.336v-2.784h2.56zm-7.488 14.176c1.578 0 2.794-.533 3.648-1.6.853-1.088 1.28-2.624 1.28-4.608s-.427-3.509-1.28-4.576-2.07-1.6-3.648-1.6-2.816.555-3.712 1.664c-.875 1.088-1.312 2.613-1.312 4.576s.437 3.477 1.312 4.544 2.112 1.6 3.712 1.6zm22.451 2.144c-1.557 0-2.922-.341-4.096-1.024-1.152-.683-2.048-1.643-2.688-2.88-.618-1.259-.928-2.72-.928-4.384s.32-3.125.96-4.384c.64-1.28 1.547-2.272 2.72-2.976 1.195-.704 2.582-1.056 4.16-1.056a8.69 8.69 0 0 1 3.136.576c1.024.363 1.867.875 2.528 1.536l-.864 1.92c-.81-.64-1.6-1.109-2.368-1.408a6.14 6.14 0 0 0-2.304-.448c-1.642 0-2.933.555-3.872 1.664-.938 1.088-1.408 2.613-1.408 4.576 0 1.941.459 3.456 1.376 4.544.939 1.067 2.24 1.6 3.904 1.6a6.14 6.14 0 0 0 2.304-.448c.768-.299 1.558-.768 2.368-1.408l.864 1.92c-.682.64-1.546 1.152-2.592 1.536-1.024.363-2.09.544-3.2.544zm23.14-.224l-8.256-7.744V512h-2.592v-23.552h2.592v14.848l7.584-7.36h3.296l-8.064 7.712 8.832 8.352h-3.392zm38.701-11.872v10.56c-.896.469-2.07.853-3.52 1.152-1.451.277-2.923.416-4.416.416-2.262 0-4.214-.459-5.856-1.376-1.643-.939-2.902-2.283-3.776-4.032-.854-1.749-1.28-3.84-1.28-6.272 0-2.411.426-4.48 1.28-6.208.874-1.749 2.112-3.083 3.712-4 1.621-.939 3.53-1.408 5.728-1.408 1.6 0 3.061.245 4.384.736 1.344.469 2.496 1.184 3.456 2.144l-1.024 2.016c-1.11-.939-2.198-1.611-3.264-2.016-1.046-.427-2.23-.64-3.552-.64-2.582 0-4.566.811-5.952 2.432-1.366 1.6-2.049 3.915-2.049 6.944 0 3.093.705 5.451 2.113 7.072 1.408 1.6 3.456 2.4 6.144 2.4a16.83 16.83 0 0 0 5.472-.896v-6.944h-5.664v-2.08h8.064zm26.126-4.608c3.562 0 5.344 2.123 5.344 6.368V512h-2.592v-9.984c0-1.515-.267-2.613-.8-3.296-.512-.683-1.355-1.024-2.528-1.024-1.366 0-2.432.459-3.2 1.376s-1.152 2.165-1.152 3.744V512h-2.592v-9.984c0-1.493-.267-2.581-.8-3.264-.534-.704-1.387-1.056-2.56-1.056-1.366 0-2.443.459-3.232 1.376-.768.917-1.152 2.165-1.152 3.744V512h-2.592v-11.584c0-1.664-.086-3.168-.256-4.512h2.464l.256 2.816c.448-1.024 1.109-1.813 1.984-2.368.896-.555 1.93-.832 3.104-.832 1.28 0 2.325.256 3.136.768s1.408 1.301 1.792 2.368c.49-.96 1.205-1.717 2.144-2.272.96-.576 2.037-.864 3.232-.864zm21.501 0c1.408 0 2.656.341 3.744 1.024s1.93 1.653 2.528 2.912c.597 1.237.896 2.688.896 4.352s-.299 3.136-.896 4.416c-.598 1.259-1.44 2.24-2.528 2.944s-2.336 1.056-3.744 1.056c-1.259 0-2.358-.277-3.296-.832s-1.654-1.344-2.144-2.368V512h-2.592v-23.552h2.592v10.304c.469-1.045 1.173-1.845 2.112-2.4.96-.555 2.069-.832 3.328-.832zm-.48 14.56c1.557 0 2.773-.544 3.648-1.632.874-1.109 1.312-2.656 1.312-4.64 0-1.941-.438-3.445-1.312-4.512-.854-1.067-2.07-1.6-3.648-1.6-1.6 0-2.827.533-3.68 1.6s-1.28 2.592-1.28 4.576.426 3.52 1.28 4.608c.853 1.067 2.08 1.6 3.68 1.6zm34.035-20.864V512h-2.624v-10.464h-13.664V512h-2.592v-22.784h2.592v10.112h13.664v-10.112h2.624zm-243.243 69.936c-1.254 0-2.343-.279-3.268-.836s-1.64-1.355-2.147-2.394c-.494-1.051-.741-2.28-.741-3.686 0-1.419.247-2.647.741-3.686s1.203-1.837 2.128-2.394 2.02-.836 3.287-.836 2.362.279 3.287.836 1.634 1.355 2.128 2.394.741 2.261.741 3.667c0 1.419-.253 2.647-.76 3.686-.494 1.039-1.203 1.843-2.128 2.413-.925.557-2.014.836-3.268.836zm0-1.33c1.431 0 2.546-.488 3.344-1.463s1.197-2.356 1.197-4.142-.399-3.16-1.197-4.123c-.785-.963-1.9-1.444-3.344-1.444s-2.565.488-3.363 1.463c-.798.963-1.197 2.331-1.197 4.104 0 1.786.399 3.167 1.197 4.142s1.919 1.463 3.363 1.463zm14.734 1.311c-.925 0-1.736-.203-2.432-.608a4.16 4.16 0 0 1-1.596-1.71c-.368-.747-.551-1.615-.551-2.603s.19-1.856.57-2.603c.38-.76.918-1.349 1.615-1.767.709-.418 1.532-.627 2.47-.627.646 0 1.266.114 1.862.342.608.215 1.108.519 1.501.912l-.513 1.14c-.482-.38-.95-.659-1.406-.836-.444-.177-.9-.266-1.368-.266-.976 0-1.742.329-2.299.988-.558.646-.836 1.552-.836 2.717 0 1.153.272 2.052.817 2.698.557.633 1.33.95 2.318.95.468 0 .924-.089 1.368-.266.456-.177.924-.456 1.406-.836l.513 1.14c-.406.38-.919.684-1.539.912a5.66 5.66 0 0 1-1.9.323zm9.369-8.474v5.225c0 .709.145 1.21.437 1.501.291.279.703.418 1.235.418a3.12 3.12 0 0 0 1.026-.171v1.311c-.393.127-.836.19-1.33.19-.912 0-1.628-.253-2.147-.76-.507-.519-.76-1.279-.76-2.28v-5.434h-1.862v-1.216h1.862v-2.451l1.539-.551v3.002h2.736v1.216h-2.736zm22.141 7.03V559h-8.702v-1.178l4.731-5.244c.634-.709 1.096-1.349 1.387-1.919s.437-1.14.437-1.71c0-.747-.215-1.317-.646-1.71-.43-.405-1.045-.608-1.843-.608-1.292 0-2.571.519-3.838 1.558l-.589-1.197c.532-.507 1.204-.912 2.014-1.216s1.628-.456 2.451-.456c1.242 0 2.223.323 2.945.969.722.633 1.083 1.495 1.083 2.584a5.02 5.02 0 0 1-.532 2.242c-.342.709-.918 1.507-1.729 2.394l-3.857 4.18h6.688zm8.714 1.463c-1.546 0-2.724-.583-3.534-1.748-.798-1.178-1.197-2.901-1.197-5.168s.399-3.984 1.197-5.149c.81-1.178 1.988-1.767 3.534-1.767s2.717.589 3.515 1.767c.81 1.165 1.216 2.875 1.216 5.13 0 2.267-.406 3.99-1.216 5.168-.798 1.178-1.97 1.767-3.515 1.767zm0-1.311c1.076 0 1.868-.456 2.375-1.368.519-.912.779-2.331.779-4.256 0-1.913-.254-3.319-.76-4.218s-1.305-1.349-2.394-1.349c-1.077 0-1.875.45-2.394 1.349-.507.899-.76 2.305-.76 4.218s.253 3.331.76 4.256c.519.912 1.317 1.368 2.394 1.368zm17.567-.152V559h-7.543v-1.311h2.983V547.41l-2.774 1.767v-1.501l3.458-2.204h.893v12.217h2.983zm8.6-12.369c1.634 0 2.894.57 3.781 1.71s1.33 2.761 1.33 4.864c0 2.293-.462 4.079-1.387 5.358-.912 1.267-2.191 1.9-3.838 1.9-.773 0-1.533-.146-2.28-.437a6.17 6.17 0 0 1-1.957-1.235l.608-1.197c.646.545 1.26.944 1.843 1.197a4.59 4.59 0 0 0 1.767.361c1.165 0 2.065-.519 2.698-1.558.646-1.039.969-2.495.969-4.37v-.247c-.291.709-.766 1.273-1.425 1.691-.659.405-1.412.608-2.261.608-.823 0-1.552-.177-2.185-.532a3.89 3.89 0 0 1-1.482-1.52c-.355-.659-.532-1.406-.532-2.242s.184-1.583.551-2.242c.38-.659.899-1.172 1.558-1.539.659-.38 1.406-.57 2.242-.57zm.095 7.334c.887 0 1.609-.279 2.166-.836s.836-1.279.836-2.166c0-.899-.279-1.628-.836-2.185s-1.286-.836-2.185-.836c-.861 0-1.558.279-2.09.836-.532.545-.798 1.273-.798 2.185 0 .899.266 1.628.798 2.185.532.545 1.235.817 2.109.817zm16.157.608h5.377v1.273h-5.377v-1.273zm29.971-7.79V559h-1.444v-10.051L778.849 559h-1.102l-4.427-9.975.019 9.975h-1.444v-13.528h1.292l5.13 11.666 5.073-11.666h1.292zm13.464 3.971V559h-1.52v-1.729c-.278.595-.703 1.058-1.273 1.387-.557.317-1.209.475-1.957.475-.848 0-1.596-.203-2.242-.608-.633-.405-1.127-.975-1.482-1.71-.342-.747-.513-1.615-.513-2.603s.178-1.856.532-2.603c.355-.76.849-1.349 1.482-1.767.646-.418 1.387-.627 2.223-.627.748 0 1.4.165 1.957.494s.982.792 1.273 1.387v-1.653h1.52zm-4.446 8.417c.938 0 1.66-.317 2.166-.95.507-.646.76-1.558.76-2.736s-.253-2.084-.76-2.717-1.228-.95-2.166-.95-1.672.329-2.204.988c-.519.646-.779 1.552-.779 2.717s.26 2.065.779 2.698 1.254.95 2.204.95zm13.768-8.645a3.17 3.17 0 0 1 .874.114l-.038 1.406c-.291-.101-.627-.152-1.007-.152-.925 0-1.615.291-2.071.874-.443.57-.665 1.267-.665 2.09V559h-1.539v-6.878a21.47 21.47 0 0 0-.152-2.679h1.463l.152 1.767c.241-.646.627-1.14 1.159-1.482s1.14-.513 1.824-.513zm19.989 8.474V559h-8.702v-1.178l4.731-5.244c.633-.709 1.095-1.349 1.387-1.919s.437-1.14.437-1.71c0-.747-.216-1.317-.646-1.71-.431-.405-1.045-.608-1.843-.608-1.292 0-2.572.519-3.838 1.558l-.589-1.197c.532-.507 1.203-.912 2.014-1.216s1.627-.456 2.451-.456c1.241 0 2.223.323 2.945.969.722.633 1.083 1.495 1.083 2.584 0 .773-.178 1.52-.532 2.242-.342.709-.919 1.507-1.729 2.394l-3.857 4.18h6.688zm8.713 1.463c-1.545 0-2.723-.583-3.534-1.748-.798-1.178-1.197-2.901-1.197-5.168s.399-3.984 1.197-5.149c.811-1.178 1.989-1.767 3.534-1.767s2.717.589 3.515 1.767c.811 1.165 1.216 2.875 1.216 5.13 0 2.267-.405 3.99-1.216 5.168-.798 1.178-1.969 1.767-3.515 1.767zm0-1.311c1.077 0 1.869-.456 2.375-1.368.52-.912.779-2.331.779-4.256 0-1.913-.253-3.319-.76-4.218s-1.304-1.349-2.394-1.349c-1.076 0-1.874.45-2.394 1.349-.506.899-.76 2.305-.76 4.218s.254 3.331.76 4.256c.52.912 1.318 1.368 2.394 1.368zm17.872-.152V559h-8.702v-1.178l4.731-5.244c.633-.709 1.096-1.349 1.387-1.919s.437-1.14.437-1.71c0-.747-.215-1.317-.646-1.71-.431-.405-1.045-.608-1.843-.608-1.292 0-2.571.519-3.838 1.558l-.589-1.197c.532-.507 1.203-.912 2.014-1.216s1.628-.456 2.451-.456c1.241 0 2.223.323 2.945.969.722.633 1.083 1.495 1.083 2.584a5.02 5.02 0 0 1-.532 2.242c-.342.709-.918 1.507-1.729 2.394l-3.857 4.18h6.688zm12.988 0V559h-7.543v-1.311h2.983V547.41l-2.774 1.767v-1.501l3.458-2.204h.893v12.217h2.983z"/><path d="M624.046 595h-1.152l-1.602-4.266c-.204-.576-.486-.96-.846-1.152-.36-.204-.882-.306-1.566-.306h-3.582V595h-1.116v-12.816h4.95c1.332 0 2.364.306 3.096.918.732.6 1.098 1.464 1.098 2.592 0 .828-.222 1.524-.666 2.088-.432.564-1.056.96-1.872 1.188.372.06.69.216.954.468s.486.624.666 1.116l1.638 4.446zm-4.986-6.696c2.1 0 3.15-.876 3.15-2.628 0-1.692-1.05-2.538-3.15-2.538h-3.78v5.166h3.78zm7.929 2.052v.054c0 1.212.276 2.142.828 2.79.564.636 1.38.954 2.448.954 1.08 0 2.07-.372 2.97-1.116l.432.864c-.396.372-.9.672-1.512.9a5.64 5.64 0 0 1-1.89.324c-1.368 0-2.448-.414-3.24-1.242s-1.188-1.968-1.188-3.42c0-.924.174-1.74.522-2.448.36-.72.858-1.272 1.494-1.656.636-.396 1.368-.594 2.196-.594 1.188 0 2.112.384 2.772 1.152.672.768 1.008 1.836 1.008 3.204v.234h-6.84zm3.06-3.69c-.828 0-1.5.252-2.016.756-.516.492-.84 1.188-.972 2.088h5.724c-.072-.924-.342-1.626-.81-2.106-.468-.492-1.11-.738-1.926-.738zm13.787-4.914V595h-1.098v-1.728c-.264.6-.666 1.062-1.206 1.386-.528.312-1.164.468-1.908.468-.792 0-1.494-.192-2.106-.576-.6-.396-1.068-.948-1.404-1.656-.336-.72-.504-1.548-.504-2.484s.162-1.752.486-2.448c.336-.708.804-1.248 1.404-1.62.612-.384 1.32-.576 2.124-.576.732 0 1.362.156 1.89.468a2.96 2.96 0 0 1 1.224 1.368v-5.85h1.098zm-4.068 12.402c.948 0 1.68-.324 2.196-.972s.774-1.56.774-2.736-.258-2.088-.774-2.736c-.516-.66-1.242-.99-2.178-.99-.96 0-1.704.324-2.232.972s-.792 1.554-.792 2.718c0 1.176.264 2.094.792 2.754s1.266.99 2.214.99zm7.629-3.798v.054c0 1.212.276 2.142.828 2.79.564.636 1.38.954 2.448.954 1.08 0 2.07-.372 2.97-1.116l.432.864c-.396.372-.9.672-1.512.9a5.64 5.64 0 0 1-1.89.324c-1.368 0-2.448-.414-3.24-1.242s-1.188-1.968-1.188-3.42c0-.924.174-1.74.522-2.448.36-.72.858-1.272 1.494-1.656.636-.396 1.368-.594 2.196-.594 1.188 0 2.112.384 2.772 1.152.672.768 1.008 1.836 1.008 3.204v.234h-6.84zm3.06-3.69c-.828 0-1.5.252-2.016.756-.516.492-.84 1.188-.972 2.088h5.724c-.072-.924-.342-1.626-.81-2.106-.468-.492-1.11-.738-1.926-.738zm9.072 8.46c-1.464 0-2.622-.402-3.474-1.206l.396-.846c.48.396.96.678 1.44.846.492.168 1.056.252 1.692.252.744 0 1.308-.126 1.692-.378a1.28 1.28 0 0 0 .594-1.134c0-.408-.132-.726-.396-.954-.252-.24-.672-.432-1.26-.576l-1.53-.342c-.72-.168-1.29-.468-1.71-.9-.408-.432-.612-.936-.612-1.512 0-.792.3-1.422.9-1.89.612-.48 1.422-.72 2.43-.72.636 0 1.224.102 1.764.306.552.204 1.008.498 1.368.882l-.414.846c-.828-.72-1.734-1.08-2.718-1.08-.696 0-1.236.138-1.62.414s-.576.66-.576 1.152c0 .408.12.738.36.99.252.252.636.438 1.152.558l1.548.378c1.62.36 2.43 1.158 2.43 2.394 0 .756-.312 1.368-.936 1.836-.624.456-1.464.684-2.52.684zm5.96-9.144h1.08V595h-1.08v-9.018zm1.296-3.726v1.404h-1.458v-1.404h1.458zm10.522 3.726v9.054c0 1.308-.324 2.298-.972 2.97s-1.602 1.008-2.862 1.008c-1.344 0-2.514-.324-3.51-.972l.216-.954c.588.348 1.128.594 1.62.738s1.056.216 1.692.216c.9 0 1.578-.246 2.034-.738.468-.492.702-1.212.702-2.16v-2.322c-.276.612-.684 1.086-1.224 1.422-.54.324-1.188.486-1.944.486-.792 0-1.494-.186-2.106-.558-.612-.384-1.092-.912-1.44-1.584-.336-.684-.504-1.464-.504-2.34 0-.888.168-1.668.504-2.34.348-.684.828-1.212 1.44-1.584s1.314-.558 2.106-.558c.756 0 1.398.156 1.926.468a2.96 2.96 0 0 1 1.224 1.368v-1.62h1.098zm-4.104 7.758c.936 0 1.668-.312 2.196-.936.54-.624.81-1.476.81-2.556 0-1.092-.27-1.95-.81-2.574-.528-.636-1.26-.954-2.196-.954-.948 0-1.692.318-2.232.954-.54.624-.81 1.482-.81 2.574s.27 1.95.81 2.574c.54.612 1.284.918 2.232.918zm11.281-7.974c2.172 0 3.258 1.164 3.258 3.492V595h-1.098v-5.67c0-.9-.186-1.56-.558-1.98-.36-.42-.93-.63-1.71-.63-.9 0-1.626.276-2.178.828s-.828 1.296-.828 2.232V595h-1.08v-6.516c0-.936-.048-1.77-.144-2.502h1.044l.144 1.656a2.92 2.92 0 0 1 1.242-1.386c.552-.324 1.188-.486 1.908-.486zm6.212.216h1.08V595h-1.08v-9.018zm1.296-3.726v1.404h-1.458v-1.404h1.458zm6.994 3.51c2.172 0 3.258 1.164 3.258 3.492V595h-1.098v-5.67c0-.9-.186-1.56-.558-1.98-.36-.42-.93-.63-1.71-.63-.9 0-1.626.276-2.178.828s-.828 1.296-.828 2.232V595h-1.08v-6.516c0-.936-.048-1.77-.144-2.502h1.044l.144 1.656a2.92 2.92 0 0 1 1.242-1.386c.552-.324 1.188-.486 1.908-.486zm13.934.216v9.054c0 1.308-.324 2.298-.972 2.97s-1.602 1.008-2.862 1.008c-1.344 0-2.514-.324-3.51-.972l.216-.954c.588.348 1.128.594 1.62.738s1.056.216 1.692.216c.9 0 1.578-.246 2.034-.738.468-.492.702-1.212.702-2.16v-2.322c-.276.612-.684 1.086-1.224 1.422-.54.324-1.188.486-1.944.486-.792 0-1.494-.186-2.106-.558-.612-.384-1.092-.912-1.44-1.584-.336-.684-.504-1.464-.504-2.34 0-.888.168-1.668.504-2.34.348-.684.828-1.212 1.44-1.584s1.314-.558 2.106-.558c.756 0 1.398.156 1.926.468a2.96 2.96 0 0 1 1.224 1.368v-1.62h1.098zm-4.104 7.758c.936 0 1.668-.312 2.196-.936.54-.624.81-1.476.81-2.556 0-1.092-.27-1.95-.81-2.574-.528-.636-1.26-.954-2.196-.954-.948 0-1.692.318-2.232.954-.54.624-.81 1.482-.81 2.574s.27 1.95.81 2.574c.54.612 1.284.918 2.232.918zm15.257 1.386c-.828 0-1.56-.192-2.196-.576-.624-.384-1.11-.93-1.458-1.638-.336-.708-.504-1.53-.504-2.466s.168-1.758.504-2.466c.348-.708.834-1.254 1.458-1.638.636-.384 1.368-.576 2.196-.576.816 0 1.536.192 2.16.576s1.104.93 1.44 1.638c.348.708.522 1.53.522 2.466s-.174 1.758-.522 2.466c-.336.708-.816 1.254-1.44 1.638s-1.344.576-2.16.576zm-.018-.972c.96 0 1.698-.318 2.214-.954.528-.648.792-1.566.792-2.754 0-1.176-.264-2.088-.792-2.736-.528-.66-1.26-.99-2.196-.99-.948 0-1.686.33-2.214.99-.528.648-.792 1.56-.792 2.736 0 1.2.258 2.118.774 2.754s1.254.954 2.214.954zm9.657-11.484c-.516 0-.912.138-1.188.414s-.414.768-.414 1.476v1.422h2.322v.882h-2.322V595h-1.098v-8.136h-1.764v-.882h1.764v-1.62c0-.9.222-1.572.666-2.016s1.056-.666 1.836-.666c.36 0 .732.048 1.116.144v.99c-.324-.096-.63-.144-.918-.144zm10.892 12.456c-.828 0-1.56-.192-2.196-.576-.624-.384-1.11-.93-1.458-1.638-.336-.708-.504-1.53-.504-2.466s.168-1.758.504-2.466c.348-.708.834-1.254 1.458-1.638.636-.384 1.368-.576 2.196-.576.816 0 1.536.192 2.16.576s1.104.93 1.44 1.638c.348.708.522 1.53.522 2.466s-.174 1.758-.522 2.466c-.336.708-.816 1.254-1.44 1.638s-1.344.576-2.16.576zm-.018-.972c.96 0 1.698-.318 2.214-.954.528-.648.792-1.566.792-2.754 0-1.176-.264-2.088-.792-2.736-.528-.66-1.26-.99-2.196-.99-.948 0-1.686.33-2.214.99-.528.648-.792 1.56-.792 2.736 0 1.2.258 2.118.774 2.754s1.254.954 2.214.954zm6.544-12.402h1.08V595h-1.08v-13.248zm11.745 0V595h-1.098v-1.728c-.264.6-.666 1.062-1.206 1.386-.528.312-1.164.468-1.908.468-.792 0-1.494-.192-2.106-.576-.6-.396-1.068-.948-1.404-1.656-.336-.72-.504-1.548-.504-2.484s.162-1.752.486-2.448c.336-.708.804-1.248 1.404-1.62.612-.384 1.32-.576 2.124-.576.732 0 1.362.156 1.89.468a2.96 2.96 0 0 1 1.224 1.368v-5.85h1.098zm-4.068 12.402c.948 0 1.68-.324 2.196-.972s.774-1.56.774-2.736-.258-2.088-.774-2.736c-.516-.66-1.242-.99-2.178-.99-.96 0-1.704.324-2.232.972s-.792 1.554-.792 2.718c0 1.176.264 2.094.792 2.754s1.266.99 2.214.99zm25.069-8.172L780.6 595h-1.134l-2.736-7.614-2.754 7.614h-1.152l-3.258-9.018h1.17l2.664 7.704 2.808-7.704h1.098l2.718 7.704 2.736-7.704h1.116zm2.599 4.374v.054c0 1.212.276 2.142.828 2.79.564.636 1.38.954 2.448.954 1.08 0 2.07-.372 2.97-1.116l.432.864c-.396.372-.9.672-1.512.9a5.64 5.64 0 0 1-1.89.324c-1.368 0-2.448-.414-3.24-1.242s-1.188-1.968-1.188-3.42c0-.924.174-1.74.522-2.448.36-.72.858-1.272 1.494-1.656.636-.396 1.368-.594 2.196-.594 1.188 0 2.112.384 2.772 1.152.672.768 1.008 1.836 1.008 3.204v.234h-6.84zm3.06-3.69c-.828 0-1.5.252-2.016.756-.516.492-.84 1.188-.972 2.088h5.724c-.072-.924-.342-1.626-.81-2.106-.468-.492-1.11-.738-1.926-.738zm10.35-.9c.792 0 1.494.192 2.106.576s1.08.924 1.404 1.62c.336.696.504 1.512.504 2.448s-.168 1.764-.504 2.484c-.336.708-.81 1.26-1.422 1.656-.6.384-1.296.576-2.088.576-.744 0-1.386-.162-1.926-.486a2.98 2.98 0 0 1-1.188-1.404V595h-1.098v-13.248h1.08v5.922c.264-.624.666-1.098 1.206-1.422s1.182-.486 1.926-.486zm-.126 8.388c.936 0 1.668-.33 2.196-.99s.792-1.578.792-2.754c0-1.164-.264-2.07-.792-2.718s-1.266-.972-2.214-.972-1.68.324-2.196.972-.774 1.566-.774 2.754.258 2.106.774 2.754c.516.636 1.254.954 2.214.954zm9.482.972c-1.464 0-2.622-.402-3.474-1.206l.396-.846c.48.396.96.678 1.44.846.492.168 1.056.252 1.692.252.744 0 1.308-.126 1.692-.378a1.28 1.28 0 0 0 .594-1.134c0-.408-.132-.726-.396-.954-.252-.24-.672-.432-1.26-.576l-1.53-.342c-.72-.168-1.29-.468-1.71-.9-.408-.432-.612-.936-.612-1.512 0-.792.3-1.422.9-1.89.612-.48 1.422-.72 2.43-.72.636 0 1.224.102 1.764.306.552.204 1.008.498 1.368.882l-.414.846c-.828-.72-1.734-1.08-2.718-1.08-.696 0-1.236.138-1.62.414s-.576.66-.576 1.152c0 .408.12.738.36.99.252.252.636.438 1.152.558l1.548.378c1.62.36 2.43 1.158 2.43 2.394 0 .756-.312 1.368-.936 1.836-.624.456-1.464.684-2.52.684zm5.961-9.144h1.08V595h-1.08v-9.018zm1.296-3.726v1.404h-1.458v-1.404h1.458zm4.33 4.608v5.364c0 .72.138 1.218.414 1.494s.684.414 1.224.414a2.95 2.95 0 0 0 .972-.162v.99c-.384.096-.774.144-1.17.144-.792 0-1.416-.222-1.872-.666-.444-.444-.666-1.11-.666-1.998v-5.58h-1.782v-.882h1.782v-2.394l1.098-.414v2.808h2.664v.882h-2.664zm5.11 3.492v.054c0 1.212.276 2.142.828 2.79.564.636 1.38.954 2.448.954 1.08 0 2.07-.372 2.97-1.116l.432.864c-.396.372-.9.672-1.512.9a5.64 5.64 0 0 1-1.89.324c-1.368 0-2.448-.414-3.24-1.242s-1.188-1.968-1.188-3.42c0-.924.174-1.74.522-2.448.36-.72.858-1.272 1.494-1.656.636-.396 1.368-.594 2.196-.594 1.188 0 2.112.384 2.772 1.152.672.768 1.008 1.836 1.008 3.204v.234h-6.84zm3.06-3.69c-.828 0-1.5.252-2.016.756-.516.492-.84 1.188-.972 2.088h5.724c-.072-.924-.342-1.626-.81-2.106-.468-.492-1.11-.738-1.926-.738zm9.072 8.46c-1.464 0-2.622-.402-3.474-1.206l.396-.846c.48.396.96.678 1.44.846.492.168 1.056.252 1.692.252.744 0 1.308-.126 1.692-.378a1.28 1.28 0 0 0 .594-1.134c0-.408-.132-.726-.396-.954-.252-.24-.672-.432-1.26-.576l-1.53-.342c-.72-.168-1.29-.468-1.71-.9-.408-.432-.612-.936-.612-1.512 0-.792.3-1.422.9-1.89.612-.48 1.422-.72 2.43-.72.636 0 1.224.102 1.764.306.552.204 1.008.498 1.368.882l-.414.846c-.828-.72-1.734-1.08-2.718-1.08-.696 0-1.236.138-1.62.414s-.576.66-.576 1.152c0 .408.12.738.36.99.252.252.636.438 1.152.558l1.548.378c1.62.36 2.43 1.158 2.43 2.394 0 .756-.312 1.368-.936 1.836-.624.456-1.464.684-2.52.684zm17.802-9.144V595h-1.062v-1.638c-.288.576-.696 1.014-1.224 1.314s-1.134.45-1.818.45c-1.056 0-1.854-.294-2.394-.882s-.81-1.458-.81-2.61v-5.652h1.08v5.58c0 .888.18 1.542.54 1.962s.918.63 1.674.63c.888 0 1.596-.276 2.124-.828.528-.564.792-1.308.792-2.232v-5.112h1.098zm5.928 9.144c-1.464 0-2.622-.402-3.474-1.206l.396-.846c.48.396.96.678 1.44.846.492.168 1.056.252 1.692.252.744 0 1.308-.126 1.692-.378a1.28 1.28 0 0 0 .594-1.134c0-.408-.132-.726-.396-.954-.252-.24-.672-.432-1.26-.576l-1.53-.342c-.72-.168-1.29-.468-1.71-.9-.408-.432-.612-.936-.612-1.512 0-.792.3-1.422.9-1.89.612-.48 1.422-.72 2.43-.72.636 0 1.224.102 1.764.306.552.204 1.008.498 1.368.882l-.414.846c-.828-.72-1.734-1.08-2.718-1.08-.696 0-1.236.138-1.62.414s-.576.66-.576 1.152c0 .408.12.738.36.99.252.252.636.438 1.152.558l1.548.378c1.62.36 2.43 1.158 2.43 2.394 0 .756-.312 1.368-.936 1.836-.624.456-1.464.684-2.52.684zm5.961-9.144h1.08V595h-1.08v-9.018zm1.296-3.726v1.404h-1.458v-1.404h1.458zm6.993 3.51c2.172 0 3.258 1.164 3.258 3.492V595h-1.098v-5.67c0-.9-.186-1.56-.558-1.98-.36-.42-.93-.63-1.71-.63-.9 0-1.626.276-2.178.828s-.828 1.296-.828 2.232V595h-1.08v-6.516c0-.936-.048-1.77-.144-2.502h1.044l.144 1.656a2.92 2.92 0 0 1 1.242-1.386c.552-.324 1.188-.486 1.908-.486zm13.935.216v9.054c0 1.308-.324 2.298-.972 2.97s-1.602 1.008-2.862 1.008c-1.344 0-2.514-.324-3.51-.972l.216-.954c.588.348 1.128.594 1.62.738s1.056.216 1.692.216c.9 0 1.578-.246 2.034-.738.468-.492.702-1.212.702-2.16v-2.322c-.276.612-.684 1.086-1.224 1.422-.54.324-1.188.486-1.944.486-.792 0-1.494-.186-2.106-.558-.612-.384-1.092-.912-1.44-1.584-.336-.684-.504-1.464-.504-2.34 0-.888.168-1.668.504-2.34.348-.684.828-1.212 1.44-1.584s1.314-.558 2.106-.558c.756 0 1.398.156 1.926.468a2.96 2.96 0 0 1 1.224 1.368v-1.62h1.098zm-4.104 7.758c.936 0 1.668-.312 2.196-.936.54-.624.81-1.476.81-2.556 0-1.092-.27-1.95-.81-2.574-.528-.636-1.26-.954-2.196-.954-.948 0-1.692.318-2.232.954-.54.624-.81 1.482-.81 2.574s.27 1.95.81 2.574c.54.612 1.284.918 2.232.918zm-247.244 18.416h-4.59v-.972h10.296v.972h-4.59V624h-1.116v-11.844zm11.944 6.57V624h-1.116v-5.31l-4.95-7.506h1.296l4.23 6.534 4.23-6.534h1.26l-4.95 7.542zm6.474-7.542h4.932c1.284 0 2.292.312 3.024.936s1.098 1.482 1.098 2.574c0 1.104-.372 1.974-1.116 2.61-.732.624-1.734.936-3.006.936h-3.816V624h-1.116v-12.816zm4.86 6.084c1.008 0 1.77-.222 2.286-.666s.774-1.08.774-1.908c0-.816-.258-1.446-.774-1.89s-1.278-.666-2.286-.666h-3.744v5.13h3.744zm11.786 6.876c-1.164 0-2.178-.264-3.042-.792-.852-.528-1.512-1.284-1.98-2.268-.456-.984-.684-2.148-.684-3.492s.228-2.508.684-3.492 1.11-1.74 1.962-2.268c.864-.528 1.884-.792 3.06-.792s2.196.264 3.06.792 1.524 1.284 1.98 2.268c.456.972.684 2.13.684 3.474s-.234 2.514-.702 3.51c-.456.984-1.116 1.74-1.98 2.268-.852.528-1.866.792-3.042.792zm0-.99c1.44 0 2.556-.486 3.348-1.458.804-.972 1.206-2.346 1.206-4.122s-.396-3.144-1.188-4.104-1.914-1.44-3.366-1.44c-1.44 0-2.562.486-3.366 1.458-.792.96-1.188 2.322-1.188 4.086s.396 3.138 1.188 4.122c.804.972 1.926 1.458 3.366 1.458zm13.944-5.742c.756.216 1.332.594 1.728 1.134.396.528.594 1.194.594 1.998 0 1.104-.366 1.98-1.098 2.628-.72.636-1.704.954-2.952.954-.816 0-1.596-.144-2.34-.432s-1.38-.69-1.908-1.206l.468-.882c.588.516 1.188.906 1.8 1.17.624.252 1.284.378 1.98.378.936 0 1.656-.222 2.16-.666.516-.456.774-1.104.774-1.944 0-1.704-1.056-2.556-3.168-2.556h-1.368v-.99h1.098c1.008 0 1.782-.228 2.322-.684.552-.468.828-1.134.828-1.998 0-.732-.222-1.296-.666-1.692-.444-.408-1.068-.612-1.872-.612-1.26 0-2.49.516-3.69 1.548l-.468-.882c.516-.516 1.14-.918 1.872-1.206a6.33 6.33 0 0 1 2.304-.432c1.116 0 2.004.294 2.664.882.66.576.99 1.356.99 2.34 0 .744-.186 1.398-.558 1.962-.36.552-.858.948-1.494 1.188zm15.309 6.732c-1.188 0-2.22-.258-3.096-.774-.876-.528-1.548-1.284-2.016-2.268-.468-.996-.702-2.172-.702-3.528 0-1.344.234-2.508.702-3.492s1.14-1.734 2.016-2.25c.876-.528 1.908-.792 3.096-.792.888 0 1.698.144 2.43.432.744.276 1.386.69 1.926 1.242l-.468.882c-.612-.552-1.224-.948-1.836-1.188-.612-.252-1.296-.378-2.052-.378-1.476 0-2.622.486-3.438 1.458-.816.96-1.224 2.322-1.224 4.086 0 1.776.402 3.15 1.206 4.122.816.972 1.968 1.458 3.456 1.458.756 0 1.44-.12 2.052-.36.612-.252 1.224-.654 1.836-1.206l.468.882a5.37 5.37 0 0 1-1.926 1.26c-.732.276-1.542.414-2.43.414zm18.928-12.96V624h-1.044v-10.26l-4.5 10.26h-.828l-4.536-10.17.018 10.17h-1.044v-12.816h.918l5.076 11.484 5.004-11.484h.936zm7.284 12.96c-1.008 0-1.902-.132-2.682-.396-.768-.276-1.452-.702-2.052-1.278l.468-.882c.636.564 1.278.966 1.926 1.206.66.24 1.44.36 2.34.36 1.08 0 1.92-.222 2.52-.666s.9-1.068.9-1.872c0-.468-.15-.846-.45-1.134-.288-.3-.66-.534-1.116-.702-.444-.168-1.038-.336-1.782-.504-.984-.216-1.788-.438-2.412-.666-.612-.24-1.128-.594-1.548-1.062s-.63-1.092-.63-1.872c0-.72.186-1.356.558-1.908s.9-.978 1.584-1.278c.696-.3 1.5-.45 2.412-.45.876 0 1.686.144 2.43.432.744.276 1.386.69 1.926 1.242l-.468.882c-.6-.54-1.212-.936-1.836-1.188a5.43 5.43 0 0 0-2.052-.378c-1.08 0-1.926.234-2.538.702-.6.468-.9 1.11-.9 1.926 0 .708.264 1.236.792 1.584s1.302.642 2.322.882l.522.126 2.286.666c.564.216 1.044.54 1.44.972s.594 1.008.594 1.728c0 .696-.186 1.314-.558 1.854-.372.528-.906.942-1.602 1.242-.684.288-1.482.432-2.394.432zm19.137-9.162V624h-1.098v-1.728c-.264.6-.666 1.062-1.206 1.386-.528.312-1.164.468-1.908.468-.804 0-1.512-.186-2.124-.558-.6-.384-1.068-.924-1.404-1.62-.324-.708-.486-1.53-.486-2.466s.168-1.758.504-2.466c.336-.72.804-1.272 1.404-1.656.612-.396 1.314-.594 2.106-.594.732 0 1.362.156 1.89.468a2.96 2.96 0 0 1 1.224 1.368v-1.62h1.098zm-4.05 8.172c.936 0 1.662-.324 2.178-.972s.774-1.56.774-2.736c0-1.188-.258-2.106-.774-2.754s-1.248-.972-2.196-.972-1.686.336-2.214 1.008c-.528.66-.792 1.578-.792 2.754 0 1.164.264 2.07.792 2.718.528.636 1.272.954 2.232.954zm11.229-8.388c2.172 0 3.258 1.164 3.258 3.492V624h-1.098v-5.67c0-.9-.186-1.56-.558-1.98-.36-.42-.93-.63-1.71-.63-.9 0-1.626.276-2.178.828s-.828 1.296-.828 2.232V624h-1.08v-6.516c0-.936-.048-1.77-.144-2.502h1.044l.144 1.656a2.92 2.92 0 0 1 1.242-1.386c.552-.324 1.188-.486 1.908-.486zm13.862-4.014V624h-1.098v-1.728c-.264.6-.666 1.062-1.206 1.386-.528.312-1.164.468-1.908.468-.792 0-1.494-.192-2.106-.576-.6-.396-1.068-.948-1.404-1.656-.336-.72-.504-1.548-.504-2.484s.162-1.752.486-2.448c.336-.708.804-1.248 1.404-1.62.612-.384 1.32-.576 2.124-.576.732 0 1.362.156 1.89.468a2.96 2.96 0 0 1 1.224 1.368v-5.85h1.098zm-4.068 12.402c.948 0 1.68-.324 2.196-.972s.774-1.56.774-2.736-.258-2.088-.774-2.736c-.516-.66-1.242-.99-2.178-.99-.96 0-1.704.324-2.232.972s-.792 1.554-.792 2.718c0 1.176.264 2.094.792 2.754s1.266.99 2.214.99zm29.407-11.97L790.219 624h-.972l-3.852-11.034-3.87 11.034h-.954l-4.464-12.816h1.116l3.852 11.268 3.888-11.268.882.018 3.87 11.214 3.852-11.232h1.116zm4.747 12.942c-.828 0-1.56-.192-2.196-.576-.624-.384-1.11-.93-1.458-1.638-.336-.708-.504-1.53-.504-2.466s.168-1.758.504-2.466c.348-.708.834-1.254 1.458-1.638.636-.384 1.368-.576 2.196-.576.816 0 1.536.192 2.16.576s1.104.93 1.44 1.638c.348.708.522 1.53.522 2.466s-.174 1.758-.522 2.466c-.336.708-.816 1.254-1.44 1.638s-1.344.576-2.16.576zm-.018-.972c.96 0 1.698-.318 2.214-.954.528-.648.792-1.566.792-2.754 0-1.176-.264-2.088-.792-2.736-.528-.66-1.26-.99-2.196-.99-.948 0-1.686.33-2.214.99-.528.648-.792 1.56-.792 2.736 0 1.2.258 2.118.774 2.754s1.254.954 2.214.954zm10.432-8.388c.3 0 .564.024.792.072l-.054.99c-.228-.048-.504-.072-.828-.072-.912 0-1.596.294-2.052.882-.444.576-.666 1.266-.666 2.07V624h-1.08v-6.516c0-.936-.048-1.77-.144-2.502h1.044l.144 1.674c.228-.612.594-1.08 1.098-1.404.516-.324 1.098-.486 1.746-.486zm9.862-4.014V624h-1.098v-1.728c-.264.6-.666 1.062-1.206 1.386-.528.312-1.164.468-1.908.468-.792 0-1.494-.192-2.106-.576-.6-.396-1.068-.948-1.404-1.656-.336-.72-.504-1.548-.504-2.484s.162-1.752.486-2.448c.336-.708.804-1.248 1.404-1.62.612-.384 1.32-.576 2.124-.576.732 0 1.362.156 1.89.468a2.96 2.96 0 0 1 1.224 1.368v-5.85h1.098zm-4.068 12.402c.948 0 1.68-.324 2.196-.972s.774-1.56.774-2.736-.258-2.088-.774-2.736c-.516-.66-1.242-.99-2.178-.99-.96 0-1.704.324-2.232.972s-.792 1.554-.792 2.718c0 1.176.264 2.094.792 2.754s1.266.99 2.214.99zm7.214-11.97h4.932c1.284 0 2.292.312 3.024.936s1.098 1.482 1.098 2.574c0 1.104-.372 1.974-1.116 2.61-.732.624-1.734.936-3.006.936h-3.816V624h-1.116v-12.816zm4.86 6.084c1.008 0 1.77-.222 2.286-.666s.774-1.08.774-1.908c0-.816-.258-1.446-.774-1.89s-1.278-.666-2.286-.666h-3.744v5.13h3.744zm10.274-2.502c.3 0 .564.024.792.072l-.054.99c-.228-.048-.504-.072-.828-.072-.912 0-1.596.294-2.052.882-.444.576-.666 1.266-.666 2.07V624h-1.08v-6.516c0-.936-.048-1.77-.144-2.502h1.044l.144 1.674c.228-.612.594-1.08 1.098-1.404.516-.324 1.098-.486 1.746-.486zm2.788 4.59v.054c0 1.212.276 2.142.828 2.79.564.636 1.38.954 2.448.954 1.08 0 2.07-.372 2.97-1.116l.432.864c-.396.372-.9.672-1.512.9a5.64 5.64 0 0 1-1.89.324c-1.368 0-2.448-.414-3.24-1.242s-1.188-1.968-1.188-3.42c0-.924.174-1.74.522-2.448.36-.72.858-1.272 1.494-1.656.636-.396 1.368-.594 2.196-.594 1.188 0 2.112.384 2.772 1.152.672.768 1.008 1.836 1.008 3.204v.234h-6.84zm3.06-3.69c-.828 0-1.5.252-2.016.756-.516.492-.84 1.188-.972 2.088h5.724c-.072-.924-.342-1.626-.81-2.106-.468-.492-1.11-.738-1.926-.738zm9.072 8.46c-1.464 0-2.622-.402-3.474-1.206l.396-.846c.48.396.96.678 1.44.846.492.168 1.056.252 1.692.252.744 0 1.308-.126 1.692-.378a1.28 1.28 0 0 0 .594-1.134c0-.408-.132-.726-.396-.954-.252-.24-.672-.432-1.26-.576l-1.53-.342c-.72-.168-1.29-.468-1.71-.9-.408-.432-.612-.936-.612-1.512 0-.792.3-1.422.9-1.89.612-.48 1.422-.72 2.43-.72.636 0 1.224.102 1.764.306.552.204 1.008.498 1.368.882l-.414.846c-.828-.72-1.734-1.08-2.718-1.08-.696 0-1.236.138-1.62.414s-.576.66-.576 1.152c0 .408.12.738.36.99.252.252.636.438 1.152.558l1.548.378c1.62.36 2.43 1.158 2.43 2.394 0 .756-.312 1.368-.936 1.836-.624.456-1.464.684-2.52.684zm8.894 0c-1.464 0-2.622-.402-3.474-1.206l.396-.846c.48.396.96.678 1.44.846.492.168 1.056.252 1.692.252.744 0 1.308-.126 1.692-.378a1.28 1.28 0 0 0 .594-1.134c0-.408-.132-.726-.396-.954-.252-.24-.672-.432-1.26-.576l-1.53-.342c-.72-.168-1.29-.468-1.71-.9-.408-.432-.612-.936-.612-1.512 0-.792.3-1.422.9-1.89.612-.48 1.422-.72 2.43-.72.636 0 1.224.102 1.764.306.552.204 1.008.498 1.368.882l-.414.846c-.828-.72-1.734-1.08-2.718-1.08-.696 0-1.236.138-1.62.414s-.576.66-.576 1.152c0 .408.12.738.36.99.252.252.636.438 1.152.558l1.548.378c1.62.36 2.43 1.158 2.43 2.394 0 .756-.312 1.368-.936 1.836-.624.456-1.464.684-2.52.684zm7.151-1.692V624h-1.53v-1.566h1.53z"/></g><g fill="#08fdd8"><path d="M564.157 46h-37.298v37.298h11.169c.302 7.112.373 38.761-20.46 61.566-15.114 16.552-38.077 24.944-68.235 24.944-101.081 0-112.672 97.331-113.837 111.894h-12.652V319h37.298v-37.298h-12.205c1.173-15.35 11.687-99.461 101.396-99.461 33.796 0 59.843-9.755 77.414-28.993 23.577-25.814 24.103-60.224 23.73-69.95h13.68V46zM356.01 314.856H327v-29.01h29.01v29.01zM560.013 79.154h-29.01v-29.01h29.01v29.01z"/><path d="M322.843 283h37.298v37.298h-11.169c-.302 7.111-.373 38.761 20.46 61.566 15.114 16.552 38.077 24.944 68.235 24.944 101.081 0 112.672 97.331 113.837 111.894h12.652V556h-37.298v-37.298h12.205c-1.173-15.35-11.687-99.461-101.396-99.461-33.796 0-59.843-9.755-77.414-28.993-23.577-25.814-24.103-60.224-23.73-69.95h-13.68V283zM530.99 551.856H560v-29.01h-29.01v29.01zM326.987 316.154h29.01v-29.01h-29.01v29.01z"/></g></svg>